<?xml version="1.0" standalone="no"?>
<!DOCTYPE svg PUBLIC "-//W3C//DTD SVG 20010904//EN"
 "http://www.w3.org/TR/2001/REC-SVG-20010904/DTD/svg10.dtd">
<svg version="1.0" xmlns="http://www.w3.org/2000/svg"
 width="850.000000pt" height="850.000000pt" viewBox="0 0 850.000000 850.000000"
 preserveAspectRatio="xMidYMid meet">
<metadata>
Created by potrace 1.11, written by Peter Selinger 2001-2013
</metadata>
<g transform="translate(0.000000,850.000000) scale(0.100000,-0.100000)"
fill="#000000" stroke="none">
<path d="M2565 7621 c-3 -6 -17 -11 -30 -11 -13 0 -27 -5 -30 -11 -5 -7 -13
-4 -26 7 -18 16 -19 15 -29 -10 -5 -15 -16 -29 -24 -32 -8 -3 -17 -17 -21 -31
-3 -14 -24 -43 -46 -63 -21 -21 -39 -41 -39 -45 0 -4 -7 -13 -15 -21 -13 -14
-15 -13 -15 2 0 10 9 36 20 59 11 22 23 62 26 88 l7 46 -34 -9 c-19 -6 -35
-10 -37 -10 -2 0 -10 -16 -18 -35 -8 -19 -19 -35 -26 -35 -6 0 -8 -3 -5 -6 4
-4 13 -2 20 5 11 8 18 6 32 -9 10 -11 13 -20 7 -20 -6 0 -13 4 -16 9 -3 4 -17
6 -31 3 -19 -3 -23 -8 -16 -15 15 -15 14 -30 -1 -21 -8 5 -9 2 -5 -9 5 -14 3
-15 -14 -4 -16 10 -21 9 -29 -3 -8 -12 -10 -9 -10 12 0 15 4 29 8 32 4 2 6 23
4 46 -4 34 -10 45 -36 61 -34 21 -71 25 -81 9 -3 -5 -15 -10 -25 -10 -13 0
-22 -9 -26 -25 -3 -14 -10 -25 -16 -25 -5 0 -6 -4 -3 -10 3 -5 2 -10 -3 -10
-6 0 -8 -8 -5 -18 3 -13 -7 -26 -32 -43 -19 -13 -38 -34 -41 -46 -4 -14 -14
-23 -25 -23 -10 0 -19 -6 -20 -12 -1 -26 -8 -53 -19 -78 -28 -60 -39 -86 -45
-108 -4 -12 -10 -20 -15 -17 -9 6 -20 -18 -20 -46 0 -11 -11 -30 -24 -42 -13
-12 -27 -36 -30 -54 -4 -17 -14 -37 -22 -44 -13 -11 -88 -128 -89 -139 -1 -3
-7 -16 -14 -30 -13 -22 -15 -23 -21 -6 -6 17 -8 17 -32 -5 -14 -13 -37 -43
-51 -66 -15 -23 -35 -50 -45 -60 -10 -10 -40 -52 -67 -93 -35 -53 -50 -70 -53
-57 -2 10 1 24 8 32 8 9 8 14 0 17 -7 2 2 22 19 48 17 25 31 50 31 56 0 7 7
14 15 18 8 3 15 12 15 20 0 9 7 12 19 9 21 -5 67 49 56 67 -3 5 -2 10 3 10 10
0 25 30 19 37 -2 2 -20 -13 -40 -33 -28 -29 -35 -33 -31 -16 8 30 73 102 92
102 14 0 14 2 3 9 -11 7 -10 14 6 37 11 16 23 39 27 51 7 22 6 22 -21 8 -40
-21 -44 -19 -27 20 17 41 17 48 4 40 -10 -6 6 38 21 60 4 6 17 28 29 49 17 31
19 41 8 47 -10 7 -10 9 0 9 6 0 12 4 12 10 0 5 -8 7 -17 3 -14 -5 -12 0 6 20
24 26 24 27 5 49 -10 13 -12 17 -4 11 22 -20 40 -15 40 10 0 13 4 27 9 33 13
13 32 79 35 119 3 31 1 34 -19 31 -35 -7 -59 -26 -76 -62 -16 -33 -13 -44 7
-24 7 7 16 4 29 -10 18 -20 8 -29 -11 -10 -7 7 -20 7 -34 2 -15 -6 -19 -11
-12 -16 7 -4 12 -12 12 -17 0 -6 -4 -8 -9 -5 -5 4 -16 4 -24 0 -11 -4 -13 -13
-7 -40 9 -37 0 -49 -29 -39 -10 3 -23 -1 -31 -9 -10 -12 -8 -21 10 -46 16 -22
17 -28 6 -24 -9 3 -16 10 -16 15 0 5 -5 9 -11 9 -8 0 -8 -4 0 -14 6 -7 10 -20
8 -27 -2 -8 -2 -11 0 -6 6 9 23 -1 23 -14 0 -5 -7 -9 -16 -9 -12 0 -14 -3 -6
-13 8 -9 6 -16 -8 -25 -14 -9 -20 -8 -23 1 -3 7 -6 4 -6 -6 -1 -17 -28 -52
-40 -52 -9 0 -66 -68 -89 -106 -30 -49 -81 -112 -99 -123 -10 -5 -18 -4 -24 5
-7 11 -10 9 -15 -8 -4 -13 -11 -23 -16 -23 -10 0 -5 11 27 55 12 17 57 89 100
160 74 123 109 175 216 318 25 34 54 75 65 92 32 50 -3 18 -52 -48 -54 -71
-75 -94 -51 -55 9 15 17 38 17 52 0 14 4 28 10 31 5 3 15 15 21 27 10 19 9 20
-17 14 -16 -4 -37 -9 -48 -13 -14 -4 -16 -2 -11 8 5 9 1 8 -11 -2 -10 -9 -35
-24 -54 -34 -19 -9 -89 -51 -156 -92 -113 -69 -171 -121 -203 -180 -6 -13 -23
-26 -36 -29 -14 -3 -25 -10 -25 -14 0 -5 -20 -30 -45 -57 -53 -57 -61 -39 -10
23 19 23 35 47 35 53 0 18 -18 13 -24 -6 -3 -10 -16 -29 -29 -43 -44 -48 -107
-149 -101 -163 3 -8 -5 -23 -18 -33 -13 -11 -51 -62 -85 -114 -34 -52 -75
-108 -90 -124 -15 -16 -38 -46 -50 -65 -12 -20 -23 -29 -23 -21 0 8 -10 -2
-22 -22 -19 -33 -34 -43 -60 -39 -12 1 -98 -121 -98 -140 0 -25 14 -24 33 4 9
12 16 19 16 16 1 -3 -12 -23 -29 -44 -16 -21 -30 -41 -30 -46 0 -4 -10 -29
-22 -56 -12 -26 -21 -51 -20 -56 1 -4 -11 -58 -28 -120 -64 -241 -96 -443 -76
-476 4 -6 17 -11 29 -12 19 -1 19 -2 -6 -12 -28 -11 -28 -13 -23 -67 15 -165
26 -203 47 -169 7 11 9 11 9 1 0 -9 5 -10 17 -4 10 5 33 12 51 15 24 5 32 3
32 -8 0 -8 3 -15 8 -15 10 1 39 23 40 33 4 23 35 67 47 67 8 0 19 9 25 20 6
11 18 20 28 20 9 0 26 11 38 25 20 24 22 24 27 6 3 -14 -12 -37 -54 -81 -32
-34 -61 -71 -65 -82 -3 -11 -13 -29 -23 -39 -9 -11 -15 -22 -13 -25 2 -3 -22
-34 -54 -70 -31 -36 -54 -68 -50 -71 3 -4 12 -1 18 5 33 33 31 -5 -3 -76 -13
-28 -31 -54 -40 -57 -19 -7 -30 -37 -19 -55 6 -9 12 -9 30 0 27 15 36 7 15
-13 -14 -14 -21 -37 -11 -37 19 0 69 40 109 87 27 32 56 62 63 66 8 4 14 15
14 22 0 8 4 15 9 15 4 0 28 28 52 62 46 64 79 104 169 198 51 53 52 54 29 15
-13 -22 -37 -53 -54 -70 -31 -30 -44 -49 -68 -101 -8 -17 -29 -46 -46 -66 -17
-20 -31 -38 -31 -42 0 -3 -16 -26 -35 -52 -38 -50 -49 -87 -17 -63 16 13 16
13 2 -6 -8 -11 -25 -30 -37 -42 -24 -23 -30 -43 -13 -43 5 0 13 6 17 13 5 6
26 28 48 47 30 27 35 29 22 10 -10 -14 -22 -35 -29 -47 -6 -13 -16 -23 -23
-23 -6 0 -12 -6 -12 -14 0 -16 -44 -75 -56 -75 -5 -1 3 13 17 30 44 52 29 54
-19 2 -43 -46 -61 -79 -30 -53 8 7 15 8 15 2 0 -5 -7 -15 -15 -22 -15 -12 -21
-40 -9 -40 4 0 12 7 18 15 6 9 21 17 34 18 12 0 22 4 22 8 0 12 72 79 85 79 7
0 12 8 11 18 0 9 4 16 11 15 13 -3 108 102 173 191 53 73 74 99 124 150 31 34
30 31 -8 -15 -25 -31 -43 -58 -41 -61 3 -3 -22 -40 -55 -84 -33 -43 -60 -82
-60 -87 0 -5 -9 -19 -19 -31 -59 -65 -122 -148 -116 -154 4 -4 12 1 20 11 7
10 19 15 29 11 12 -5 15 -2 9 12 -4 12 -3 15 5 10 7 -4 12 -1 12 8 0 9 7 16
16 16 9 0 18 9 21 20 3 11 9 20 14 20 5 0 6 -8 2 -17 -5 -15 -3 -16 7 -6 11
10 11 15 -1 29 -8 10 -9 15 -3 11 6 -3 23 7 37 23 14 16 22 30 16 32 -6 2 -4
11 4 21 12 17 13 15 15 -15 2 -27 -6 -43 -35 -77 -38 -45 -103 -147 -103 -162
0 -5 -5 -9 -12 -9 -6 0 -9 -2 -6 -6 3 -3 -3 -27 -13 -53 -34 -91 -49 -177 -38
-211 6 -17 9 -44 5 -60 -8 -41 11 -48 20 -8 4 18 9 27 11 20 3 -6 10 -9 16 -5
27 17 36 11 31 -20 -5 -31 -5 -31 8 -9 8 12 17 20 21 16 4 -4 18 5 33 21 18
20 28 25 36 17 8 -8 3 -21 -16 -47 -26 -34 -17 -51 13 -22 7 6 3 -7 -9 -31
-23 -45 -21 -64 5 -42 8 7 15 9 15 4 0 -4 12 3 28 17 l27 24 -24 -27 c-13 -15
-28 -26 -33 -25 -6 1 -12 -8 -14 -20 -5 -28 7 -30 24 -3 7 12 18 17 29 13 11
-4 14 -3 9 5 -4 8 -2 10 7 6 9 -3 16 3 20 15 3 12 10 21 16 21 16 0 -2 -33
-46 -87 -42 -53 -36 -55 19 -5 l42 37 -38 -47 c-21 -27 -45 -48 -52 -48 -8 0
-14 -4 -14 -10 0 -20 30 -9 65 25 28 25 36 29 32 15 -3 -13 1 -20 16 -22 11
-2 21 -11 23 -20 1 -10 -3 -16 -8 -15 -6 1 -13 -4 -15 -10 -9 -24 32 -13 64
17 35 33 49 37 56 18 2 -8 8 -9 13 -4 5 5 4 11 -3 13 -7 3 -13 8 -13 13 0 14
70 81 79 76 5 -3 14 1 21 9 7 8 16 12 21 9 5 -3 9 -1 9 3 0 5 9 9 19 9 15 0
19 -6 16 -27 -2 -15 -11 -38 -19 -52 -9 -13 -21 -37 -26 -53 -20 -65 -37 -103
-83 -188 -38 -69 -46 -91 -35 -97 15 -9 51 25 62 58 4 11 16 29 27 39 20 18
20 18 10 -9 -6 -15 -20 -46 -31 -69 -11 -23 -19 -42 -17 -43 7 -6 46 -25 51
-25 3 0 22 32 42 72 24 47 39 67 44 59 5 -10 9 -10 15 -2 4 7 2 18 -4 24 -7 9
-5 22 9 44 10 17 49 90 85 162 42 81 73 131 82 131 13 0 13 3 3 15 -10 13 -10
19 3 33 13 14 31 51 40 82 1 3 11 14 22 25 12 11 24 28 28 38 4 10 11 15 17
12 5 -3 10 -2 10 4 0 5 3 18 7 28 6 16 5 16 -11 4 -16 -14 -16 -12 1 22 10 20
23 37 28 37 14 1 66 84 56 88 -17 6 2 42 21 42 16 0 19 5 15 23 -4 12 -2 29 3
37 8 12 10 11 10 -5 0 -16 2 -17 10 -5 5 8 12 11 16 7 4 -4 1 -15 -7 -24 -25
-30 -89 -140 -89 -153 0 -7 -7 -24 -15 -38 -15 -28 -75 -179 -75 -189 0 -3 8
1 18 9 29 25 46 33 37 17 -4 -8 -14 -21 -22 -31 -16 -18 -25 -71 -12 -62 18
11 8 -23 -26 -95 -19 -40 -35 -79 -35 -87 0 -9 -4 -13 -8 -10 -10 6 -47 -40
-76 -94 -10 -19 -29 -45 -42 -58 -12 -13 -26 -37 -29 -53 -4 -16 -11 -31 -15
-34 -10 -6 -62 -106 -58 -110 12 -12 62 -8 68 5 34 74 68 140 82 162 10 14 18
32 18 38 0 7 14 34 32 61 31 48 48 66 29 32 -5 -10 -23 -48 -40 -86 -17 -37
-42 -85 -56 -107 -14 -22 -22 -40 -19 -40 3 0 -4 -17 -16 -37 -19 -33 -20 -38
-6 -49 9 -6 13 -14 9 -17 -3 -4 -1 -7 5 -7 19 0 44 32 72 93 16 32 32 58 37
58 13 1 18 9 5 9 -14 0 113 248 141 274 24 23 25 27 -39 -99 -54 -106 -71
-155 -54 -155 5 0 10 5 10 12 0 6 3 9 6 5 4 -3 -3 -21 -15 -40 -29 -47 -27
-62 4 -41 13 9 30 31 37 50 14 38 44 49 32 12 -3 -13 -13 -27 -20 -31 -8 -4
-14 -17 -14 -27 0 -11 -9 -25 -20 -32 -11 -7 -20 -17 -20 -22 0 -4 -20 -39
-45 -77 -31 -46 -51 -66 -60 -62 -8 3 -15 0 -15 -7 0 -6 -6 -18 -13 -25 -28
-32 -37 -45 -37 -52 0 -5 -9 -16 -20 -26 -30 -25 -25 -32 25 -35 25 -1 45 2
45 8 0 5 5 10 11 10 5 0 7 -4 4 -10 -3 -5 -1 -10 5 -10 7 0 10 6 7 14 -8 20
28 50 52 43 14 -3 37 14 88 67 37 39 85 92 106 118 21 26 43 47 50 45 6 -1 11
6 12 15 0 18 43 63 60 63 5 0 10 9 10 20 0 12 8 21 20 23 18 4 39 27 40 43 0
3 15 18 33 33 17 15 32 32 32 38 0 6 11 23 25 40 16 19 25 24 25 14 0 -8 -5
-18 -10 -21 -6 -4 -8 -14 -5 -23 3 -12 -4 -21 -23 -30 -15 -7 -45 -37 -66 -67
-51 -72 -96 -121 -107 -118 -5 2 -9 -5 -9 -16 0 -10 -7 -24 -15 -31 -8 -6 -17
-20 -20 -31 -8 -24 -146 -160 -156 -154 -13 9 -18 -23 -9 -55 7 -24 6 -31 -3
-28 -15 6 -50 -29 -37 -37 15 -9 12 -19 -11 -43 -11 -12 -17 -27 -13 -33 3 -6
-3 -17 -15 -25 l-21 -15 21 -30 c14 -20 25 -27 32 -21 7 5 20 12 31 16 17 6
16 3 -3 -30 -12 -20 -18 -40 -14 -45 10 -10 73 16 73 31 0 5 7 10 15 10 8 0
15 6 15 14 0 7 20 40 45 71 24 32 43 61 40 64 -2 4 10 16 26 26 16 11 29 28
29 38 0 9 4 17 9 17 5 0 35 35 65 77 31 43 60 83 66 90 5 7 10 17 10 24 0 6
11 20 24 30 14 11 28 28 31 39 8 25 34 15 31 -13 -1 -12 -10 -33 -18 -47 -9
-14 -19 -37 -23 -51 -3 -14 -24 -48 -45 -75 -21 -27 -47 -65 -56 -84 -10 -19
-25 -44 -34 -55 -30 -36 -60 -96 -54 -107 4 -5 19 2 37 19 l30 28 -21 -32
c-12 -17 -22 -35 -22 -40 0 -5 -13 -22 -30 -38 -28 -27 -40 -55 -22 -55 10 0
39 20 29 20 -10 0 31 40 41 40 5 0 24 22 43 49 18 28 35 48 37 47 3 -4 -40
-99 -49 -106 -4 -3 -9 -15 -13 -27 -4 -14 -15 -23 -27 -23 -14 0 -18 -6 -15
-22 2 -13 -7 -36 -20 -54 -13 -17 -24 -38 -24 -47 0 -10 -7 -17 -15 -17 -29 0
-10 -52 20 -56 10 -1 19 6 22 17 3 10 12 19 20 19 8 0 19 13 24 30 6 16 16 30
23 30 6 0 17 9 24 21 8 13 19 18 29 15 12 -5 14 -1 10 13 -5 20 14 46 26 35 8
-8 21 6 76 81 25 33 48 62 52 65 4 3 42 57 85 120 42 63 80 117 84 120 3 3 24
32 47 65 61 91 194 279 200 285 8 7 -48 -92 -62 -110 -54 -69 -160 -238 -158
-251 2 -9 -3 -22 -12 -29 -8 -7 -15 -17 -15 -22 0 -8 -38 -63 -90 -128 -11
-14 -22 -38 -26 -53 -3 -15 -14 -33 -25 -40 -10 -6 -19 -17 -19 -24 0 -7 -4
-13 -10 -13 -5 0 -10 -7 -10 -15 0 -8 -9 -23 -20 -32 -11 -10 -20 -22 -20 -28
0 -6 -8 -20 -17 -31 -33 -37 -45 -65 -34 -78 6 -7 7 -17 3 -21 -4 -5 -2 -5 4
-2 7 4 14 0 18 -8 3 -8 1 -14 -5 -12 -6 1 -33 -41 -59 -93 -38 -74 -45 -97
-35 -103 12 -6 11 -13 -1 -42 -14 -33 -13 -35 6 -35 22 0 70 41 70 60 0 6 -4
19 -9 29 -9 16 -5 18 30 19 21 1 39 0 39 -3 0 -3 -20 -38 -43 -78 -91 -150
-117 -199 -106 -195 7 2 19 17 28 34 95 172 145 254 167 275 l27 24 -18 -28
c-10 -15 -15 -30 -12 -33 3 -3 13 6 23 21 9 14 30 33 46 41 17 9 27 18 24 21
-3 3 4 19 15 34 11 16 18 29 16 29 -3 0 14 35 37 78 75 136 100 177 108 180 4
2 6 7 3 12 -2 4 7 20 20 34 14 15 25 31 25 37 0 5 4 9 10 9 5 0 7 7 4 15 -4 9
0 15 9 15 9 0 17 14 20 36 3 20 13 44 21 53 8 9 15 19 15 24 1 16 111 199 111
185 0 -4 16 9 35 30 l36 37 -22 -40 c-12 -22 -42 -78 -66 -125 -56 -107 -137
-245 -169 -288 -14 -18 -27 -42 -29 -53 -2 -12 -12 -27 -21 -34 -9 -6 -14 -17
-10 -23 3 -6 1 -14 -7 -19 -13 -9 -42 -63 -39 -75 1 -5 -4 -7 -11 -5 -7 1 -12
-8 -12 -23 0 -14 -5 -25 -12 -25 -6 0 -15 -4 -20 -9 -5 -5 -3 -6 5 -2 17 10
15 2 -8 -39 -32 -56 -53 -88 -77 -115 -13 -14 -23 -30 -23 -37 0 -6 -4 -15
-10 -18 -6 -4 -7 1 -3 12 3 10 3 15 -1 11 -4 -3 -9 -17 -10 -30 -2 -13 -18
-49 -37 -79 -19 -30 -47 -80 -63 -112 -16 -31 -35 -57 -41 -57 -7 0 -12 -11
-12 -25 0 -51 17 -29 112 142 43 78 84 144 91 147 19 7 11 -15 -23 -62 -18
-24 -41 -65 -53 -90 -12 -26 -28 -60 -37 -77 -45 -82 -54 -105 -48 -116 5 -7
19 8 37 40 28 49 51 74 28 30 -7 -11 -9 -23 -6 -26 3 -4 -3 -21 -14 -39 -14
-22 -17 -35 -10 -39 12 -7 60 31 60 48 0 5 26 54 58 108 31 55 63 112 71 127
20 40 102 165 115 177 6 6 24 37 40 70 16 33 45 86 63 117 19 32 32 61 29 66
-3 5 3 21 13 36 24 36 34 13 13 -29 -37 -73 -94 -254 -96 -305 -2 -30 -6 -67
-11 -82 -4 -17 -3 -28 3 -28 5 0 13 16 17 36 3 20 9 33 12 30 3 -3 14 -1 25 5
17 9 18 7 13 -18 -5 -24 -4 -26 7 -13 20 22 38 23 38 0 0 -13 -5 -18 -15 -14
-9 4 -15 0 -15 -8 0 -7 -8 -21 -17 -30 -26 -23 -53 -60 -53 -72 0 -5 12 -24
28 -40 l27 -31 -30 26 c-37 32 -55 28 -55 -14 0 -17 -6 -38 -14 -46 -29 -34
-66 -194 -47 -205 6 -4 9 -12 7 -19 -1 -7 -1 -9 1 -4 3 4 11 7 19 7 20 0 62
43 74 76 9 24 7 31 -20 57 -37 36 -39 55 -3 32 16 -11 28 -14 30 -8 2 6 14 8
25 5 17 -4 20 -2 15 12 -4 10 -7 20 -7 22 0 2 -8 4 -17 4 -17 1 -17 1 0 11 9
5 22 7 29 3 8 -5 9 1 4 22 -7 27 -7 28 8 9 18 -25 32 -14 17 13 -8 15 -8 22 2
25 7 3 5 6 -5 6 -9 1 -19 5 -22 10 -4 5 4 7 16 4 23 -6 23 -6 -2 23 -14 15
-17 23 -8 16 13 -11 22 -11 39 -2 17 9 23 9 29 0 12 -19 22 23 14 54 -5 21 -3
25 10 20 9 -3 16 -2 16 4 0 5 -10 12 -22 16 -19 5 -20 8 -8 16 11 7 22 2 42
-17 32 -30 36 -25 11 14 -13 19 -14 28 -5 31 6 2 12 9 12 15 0 8 -4 7 -12 -1
-18 -18 -25 -15 -25 13 0 28 1 29 28 15 13 -8 19 -7 19 0 0 6 -7 13 -15 16
-11 5 -12 10 -2 25 6 10 18 19 25 19 7 0 11 4 8 9 -3 5 0 11 8 14 7 3 16 21
20 40 4 19 13 41 22 48 8 7 13 18 10 25 -7 18 5 25 21 12 11 -9 12 -7 6 8 -6
17 -5 18 12 4 17 -14 18 -14 6 9 -11 19 -11 28 0 48 8 14 18 21 27 18 10 -4
13 0 9 15 -3 11 -1 20 5 20 5 0 7 4 4 8 -3 5 4 15 15 22 10 8 19 22 19 32 0 9
9 22 20 28 11 6 17 16 14 25 -4 8 -1 15 5 15 6 0 11 6 11 13 0 6 12 32 25 57
13 25 49 93 80 153 30 59 59 113 65 120 13 15 181 357 175 357 -2 0 12 23 31
51 19 28 34 56 34 62 0 6 3 8 6 5 3 -4 -2 -20 -11 -38 -9 -18 -15 -34 -12 -36
2 -2 14 20 27 49 13 28 34 76 47 105 14 30 22 56 19 59 -3 3 11 36 30 74 20
38 32 74 28 80 -4 7 -3 9 3 6 11 -7 41 31 67 88 12 25 15 40 8 43 -6 2 -9 9
-6 17 3 8 11 12 18 9 7 -3 27 28 51 76 21 44 40 78 43 76 2 -2 -13 -36 -32
-75 -20 -38 -53 -114 -75 -168 -32 -80 -171 -370 -256 -531 -9 -18 -14 -36
-11 -39 3 -3 15 14 26 39 21 48 90 166 90 155 0 -4 -8 -26 -19 -50 -70 -159
-88 -197 -113 -236 -15 -25 -28 -50 -28 -57 0 -7 -7 -20 -16 -28 -8 -9 -13
-16 -9 -16 6 0 -23 -48 -42 -68 -7 -7 -13 -19 -13 -26 0 -7 -25 -56 -55 -109
-30 -52 -55 -101 -55 -108 0 -12 -38 -80 -50 -89 -4 -3 -20 -32 -36 -65 -16
-33 -63 -121 -104 -195 -40 -74 -73 -145 -72 -158 1 -12 -9 -39 -21 -60 -50
-79 -108 -192 -99 -192 4 0 35 45 67 100 33 55 64 100 70 100 5 0 21 19 34 43
34 61 123 197 128 197 3 0 -4 -15 -15 -32 -11 -18 -74 -123 -139 -233 -191
-319 -221 -367 -240 -380 -10 -8 -15 -16 -12 -19 11 -12 48 35 125 159 69 110
134 198 134 180 0 -3 11 2 24 10 l24 16 -10 -48 c-5 -26 -16 -63 -25 -82 -8
-18 -19 -48 -25 -65 -12 -38 -21 -176 -11 -176 3 0 14 7 24 16 10 9 23 13 29
9 11 -7 9 -49 -3 -61 -10 -10 -9 -64 1 -64 4 0 13 5 19 11 8 8 13 8 17 0 4 -6
4 -11 0 -11 -4 0 2 -10 13 -22 12 -13 23 -34 25 -48 4 -24 5 -24 20 10 10 22
17 28 17 17 1 -10 -4 -27 -9 -38 -6 -11 -8 -24 -5 -29 10 -16 53 22 60 52 9
37 31 54 50 38 8 -6 19 -9 25 -5 5 3 10 -1 10 -11 0 -28 -23 -94 -32 -94 -5 0
-6 -5 -3 -10 8 -13 -3 -50 -15 -50 -5 0 -6 8 -3 17 5 14 2 12 -17 -4 -12 -12
-27 -20 -31 -17 -5 3 -6 -2 -3 -10 3 -9 1 -16 -5 -16 -6 0 -11 -5 -11 -11 0
-6 7 -8 16 -5 11 4 15 2 11 -8 -3 -8 -1 -17 6 -20 9 -5 9 -7 0 -12 -7 -3 -13
-12 -13 -20 0 -8 -12 -32 -26 -54 -15 -22 -24 -43 -21 -46 6 -6 47 31 47 43 0
16 33 41 48 36 14 -5 14 -3 -2 15 -17 19 -17 22 -3 22 10 0 17 4 17 9 0 10 19
9 37 -2 6 -4 18 -4 27 -1 10 4 19 -3 27 -20 7 -14 17 -26 23 -26 6 0 5 -5 -2
-12 -7 -7 -12 -19 -12 -27 0 -17 59 47 60 65 0 7 7 15 15 18 9 3 15 16 14 28
-4 42 1 58 17 58 8 0 13 4 10 8 -6 10 69 46 99 48 11 0 27 3 35 5 12 3 14 -4
12 -29 -2 -23 2 -38 13 -46 16 -11 16 -14 1 -28 -9 -9 -16 -19 -16 -22 0 -17
25 0 82 56 48 48 64 59 66 45 2 -9 10 -17 18 -17 14 0 14 -2 0 -15 -8 -8 -20
-15 -26 -15 -6 0 -8 -5 -4 -12 5 -7 2 -9 -8 -6 -22 9 -41 -27 -22 -42 12 -10
12 -16 2 -28 -11 -13 -10 -15 5 -9 9 3 17 4 17 1 0 -11 -37 -42 -58 -49 -17
-5 -21 -12 -17 -25 7 -22 -20 -80 -37 -80 -9 0 -9 -3 0 -12 7 -7 12 -19 12
-27 0 -8 -3 -12 -6 -8 -4 3 -21 -5 -39 -18 -17 -14 -39 -25 -47 -25 -17 0 -44
-27 -35 -36 3 -3 15 0 27 6 12 6 24 9 28 6 3 -3 0 -6 -7 -6 -7 0 -9 -5 -6 -10
4 -6 1 -9 -6 -8 -7 2 -24 -17 -37 -41 l-25 -43 23 7 c15 5 20 4 16 -4 -4 -6
-2 -11 4 -11 7 0 14 9 17 20 3 11 9 20 14 20 5 0 26 11 47 23 20 13 43 22 50
20 6 -3 12 0 12 5 0 6 -6 13 -12 16 -7 3 -2 3 11 0 20 -5 23 -3 17 12 -7 17
-6 17 14 -1 24 -21 25 -26 6 -19 -8 3 -17 -5 -24 -23 -5 -15 -19 -39 -31 -52
-23 -26 -27 -41 -11 -41 6 0 13 0 18 0 4 0 7 6 7 13 0 6 6 13 13 13 6 1 17 2
22 3 6 0 10 9 10 19 0 13 2 14 9 3 7 -11 11 -9 20 8 7 12 16 19 21 16 5 -3 16
10 26 30 9 19 20 35 24 35 5 0 11 8 14 18 3 9 19 31 36 49 16 18 30 38 30 45
0 10 3 9 10 -2 5 -8 12 -11 16 -7 4 4 0 15 -9 25 -15 16 -15 19 2 29 14 9 21
9 30 0 9 -9 11 -8 6 4 -4 10 0 19 9 22 9 4 16 17 16 31 0 15 7 27 18 31 15 5
78 84 109 139 7 11 13 17 13 11 0 -5 9 8 20 30 40 81 57 100 77 83 9 -7 13 -7
13 0 0 6 -6 12 -12 15 -9 3 -4 14 15 31 15 15 27 34 27 42 0 11 6 13 20 9 18
-6 20 -3 14 19 -4 16 -2 26 5 26 6 0 8 6 5 14 -3 7 5 22 18 32 13 11 29 32 36
49 13 27 15 28 26 12 16 -21 30 -22 22 -2 -3 8 -1 15 5 15 5 0 9 6 8 13 -2 17
12 57 20 57 3 0 14 -7 24 -14 18 -14 17 -14 -2 -21 -12 -3 -21 -15 -21 -25 0
-24 -32 -82 -60 -110 -21 -21 -45 -68 -42 -82 3 -13 -16 -9 -21 5 -4 9 -6 8
-6 -2 -1 -8 -9 -20 -18 -28 -17 -14 -17 -14 0 -9 14 5 16 2 8 -13 -6 -10 -7
-22 -3 -27 4 -5 3 -6 -2 -2 -11 9 -56 -41 -56 -62 0 -23 -37 -88 -85 -151 -23
-31 -46 -66 -50 -78 -3 -11 -11 -21 -16 -21 -5 0 -9 -9 -9 -20 0 -11 -4 -20
-10 -20 -5 0 -10 -7 -10 -15 0 -8 -6 -15 -12 -15 -7 0 -26 -26 -43 -58 -16
-31 -33 -58 -37 -60 -11 -5 -10 -32 1 -32 5 0 26 19 45 42 42 49 60 45 22 -5
-14 -18 -24 -36 -21 -38 2 -3 -18 -29 -45 -59 -60 -65 -68 -96 -20 -70 11 6
17 16 14 25 -4 11 -2 13 9 9 10 -3 18 2 22 15 3 11 14 22 23 25 17 6 87 92 99
121 3 8 9 15 14 15 13 0 -1 -51 -18 -68 -7 -7 -13 -20 -13 -28 0 -8 -4 -14
-10 -14 -5 0 -10 -9 -10 -20 0 -11 -7 -20 -15 -20 -8 0 -12 -6 -9 -14 3 -7 -2
-20 -10 -29 -9 -9 -16 -20 -16 -26 0 -6 -6 -8 -14 -5 -8 3 -24 -4 -35 -15 -16
-16 -17 -21 -6 -21 8 0 15 5 15 10 0 6 5 10 12 10 9 0 9 -3 0 -12 -7 -7 -12
-18 -12 -25 0 -8 -4 -19 -10 -26 -49 -60 -60 -77 -58 -88 2 -7 -1 -13 -7 -14
-16 -1 -35 -15 -35 -26 0 -6 4 -8 9 -5 5 3 11 -1 14 -9 4 -9 1 -12 -9 -8 -8 3
-14 -1 -14 -11 0 -9 -4 -16 -9 -16 -10 0 -9 -25 1 -36 10 -9 49 6 43 17 -4 5
1 9 9 9 9 0 23 14 31 31 10 19 22 29 31 25 9 -3 16 4 21 22 3 15 12 33 20 40
7 7 13 21 13 30 0 14 2 14 9 3 7 -11 11 -9 20 8 10 17 18 20 51 16 21 -3 42 0
45 5 4 6 11 8 16 5 5 -4 9 0 9 9 0 17 -32 15 -38 -2 -6 -19 -22 -3 -22 22 0
13 10 31 22 42 l22 19 -17 -27 c-20 -33 -22 -45 -4 -29 8 6 17 8 20 5 3 -4 12
5 18 19 7 15 17 24 22 20 7 -4 8 1 3 13 -4 10 -4 15 0 11 4 -4 16 0 26 9 14
13 21 14 32 5 12 -10 14 -9 12 4 -3 21 -26 44 -26 26 0 -10 -3 -11 -13 -2 -8
6 -17 8 -20 4 -4 -3 -7 -1 -7 5 0 6 4 14 10 17 6 3 10 1 10 -6 0 -7 8 -5 20 6
11 10 20 13 20 8 0 -7 14 -9 35 -6 37 5 51 -15 16 -24 -10 -2 -24 -16 -30 -29
-7 -15 -18 -24 -28 -22 -10 2 -17 -3 -16 -9 2 -7 -2 -13 -9 -13 -6 0 -8 -3 -5
-6 4 -4 -1 -20 -11 -36 -12 -21 -14 -31 -5 -36 13 -8 5 -26 -14 -29 -7 -2 -10
3 -7 11 4 10 -2 12 -20 9 -31 -6 -57 -33 -33 -33 11 0 14 -5 10 -17 -4 -11 -3
-14 5 -9 7 4 12 3 12 -3 0 -5 -4 -12 -9 -16 -14 -8 -42 -67 -36 -73 3 -3 11 0
17 6 23 23 26 12 7 -28 -11 -22 -24 -40 -29 -40 -6 0 -10 -5 -10 -11 0 -6 6
-9 12 -7 7 3 19 -1 26 -9 11 -11 17 -9 32 9 l19 23 -4 -32 c-2 -18 -6 -37 -10
-43 -9 -14 18 -13 35 3 12 10 12 9 4 -3 -15 -23 -11 -45 9 -44 9 1 17 -5 18
-15 0 -9 7 -1 15 17 9 21 19 30 27 26 6 -5 5 1 -3 11 -9 11 -10 16 -3 11 9 -5
22 9 40 40 16 26 36 54 46 63 9 8 17 23 17 32 0 21 36 53 49 44 6 -3 14 1 17
9 3 9 10 13 15 10 5 -3 9 -1 9 3 0 5 9 14 21 21 18 12 17 8 -6 -22 -14 -19
-43 -45 -63 -57 -21 -12 -32 -24 -24 -26 6 -3 10 -8 8 -12 -10 -16 29 -7 44
10 8 9 26 20 40 23 22 5 21 4 -4 -8 l-29 -13 31 -5 c19 -3 29 0 25 5 -4 6 -1
7 7 2 7 -4 16 -2 22 6 10 14 7 2 -8 -36 -3 -8 -1 -15 5 -15 7 0 14 6 17 14 3
8 16 17 30 20 13 4 24 14 24 23 0 15 44 89 61 103 3 3 18 24 33 48 15 23 31
40 36 37 6 -3 10 -1 10 5 0 6 5 8 10 5 17 -11 11 -24 -14 -31 -17 -4 -23 -11
-19 -21 4 -9 -5 -24 -20 -37 -15 -13 -24 -25 -22 -28 3 -3 -4 -13 -14 -22 -11
-10 -17 -24 -14 -32 3 -8 -1 -14 -11 -14 -10 0 -19 -11 -22 -30 -4 -16 -12
-30 -19 -30 -7 0 -16 -11 -19 -25 -4 -14 -10 -25 -15 -25 -13 0 -102 -135
-104 -158 -1 -12 -5 -22 -9 -22 -4 0 -8 -9 -8 -20 0 -11 -4 -20 -10 -20 -14 0
-12 -36 3 -48 6 -6 24 -13 39 -17 l26 -7 -20 -34 c-36 -61 -2 -36 46 33 25 38
57 82 72 98 l26 30 -16 -32 c-9 -18 -20 -33 -25 -33 -4 0 -13 -11 -19 -25 -7
-16 -8 -25 -1 -25 5 0 32 35 58 78 63 99 105 149 65 77 -16 -27 -47 -79 -71
-114 -23 -36 -41 -67 -39 -69 10 -9 87 51 101 78 9 16 20 30 26 30 8 0 7 -5
-1 -15 -20 -24 -8 -26 26 -4 19 12 50 53 80 106 48 86 124 185 124 162 0 -19
28 9 56 57 14 24 23 47 20 52 -3 5 2 19 11 32 9 12 27 43 40 67 13 25 29 51
36 59 30 33 35 43 42 75 10 44 47 109 63 109 6 0 12 7 12 15 0 23 108 199 221
360 118 170 139 195 103 130 -33 -60 -79 -130 -111 -169 -22 -26 -147 -233
-222 -368 -48 -85 -20 -80 38 7 28 42 70 101 94 133 24 31 77 107 117 167 91
136 249 355 257 355 3 0 -2 -11 -11 -24 -8 -14 -38 -62 -65 -108 -53 -91 -145
-222 -195 -279 -17 -20 -39 -49 -48 -65 -56 -93 -88 -140 -104 -153 -19 -16
-104 -152 -139 -221 -27 -54 -5 -26 84 108 45 68 103 146 129 175 26 29 55 63
65 77 l19 25 -15 -25 c-53 -95 -104 -178 -120 -195 -10 -11 -26 -33 -34 -50
-21 -40 -84 -133 -116 -170 -74 -87 -147 -182 -168 -218 l-23 -42 29 20 c47
30 173 102 204 115 17 7 47 41 80 91 29 43 55 79 57 79 3 0 -2 -10 -10 -22 -9
-12 -16 -27 -16 -33 1 -13 39 37 40 51 0 21 40 103 54 111 7 4 21 24 31 43 10
19 61 98 113 175 53 77 110 161 126 186 17 26 37 55 44 65 7 11 5 3 -4 -16 -9
-19 -32 -56 -50 -82 -19 -25 -43 -67 -55 -92 -11 -25 -25 -46 -32 -46 -7 -1
-32 -42 -57 -93 -25 -51 -59 -110 -76 -132 -44 -56 -156 -236 -150 -242 3 -3
16 7 30 22 14 15 30 24 35 20 6 -3 11 0 11 8 0 8 11 28 24 43 14 16 34 40 46
54 11 14 19 19 18 10 -2 -11 8 -16 36 -18 33 -3 43 1 62 25 13 15 23 33 24 39
0 7 7 14 14 17 8 3 18 22 22 42 3 20 12 39 20 42 7 2 10 12 7 21 -4 9 -3 14 1
11 8 -7 84 63 80 72 -2 4 4 6 14 5 11 -1 16 5 14 16 -1 9 6 19 18 23 11 3 20
11 20 16 0 5 6 9 13 9 8 0 19 12 25 26 7 14 16 23 22 19 5 -3 7 5 5 17 -4 22
-3 22 10 4 13 -16 14 -15 17 20 3 34 6 39 31 42 26 3 27 5 11 16 -16 12 -16
13 0 19 11 5 15 3 10 -5 -4 -6 -3 -8 3 -5 5 3 8 22 7 41 -2 26 1 36 11 36 9 0
12 6 9 15 -4 9 0 15 10 15 19 0 20 4 5 33 -9 20 -9 21 4 4 15 -19 34 -7 22 13
-3 6 1 13 9 16 9 3 16 13 16 21 0 8 5 11 10 8 6 -3 13 2 17 12 4 10 11 21 17
25 6 4 6 11 -2 20 -9 11 -5 13 24 10 28 -4 33 -1 28 12 -3 9 -1 23 6 31 10 12
10 15 -3 15 -9 0 -19 5 -23 11 -4 8 1 9 16 4 19 -6 21 -5 11 13 -9 17 -7 23
10 36 15 10 20 22 16 35 -3 14 1 22 14 26 11 4 27 19 36 33 10 15 29 41 43 58
49 61 62 79 99 134 20 30 45 64 57 75 11 11 24 29 28 39 5 14 10 16 18 8 8 -8
8 -15 0 -25 -7 -8 -9 -17 -6 -20 3 -3 -6 -21 -20 -40 -14 -19 -26 -38 -26 -43
0 -14 -74 -127 -94 -143 -9 -7 -16 -18 -16 -23 0 -8 -45 -74 -60 -88 -15 -13
-50 -83 -50 -98 1 -13 6 -11 25 11 14 15 25 26 25 22 0 -7 -68 -105 -91 -131
-11 -11 -19 -26 -19 -32 0 -19 21 -14 27 6 2 10 17 26 32 36 15 11 43 41 61
68 38 56 48 62 24 16 -35 -69 -87 -148 -98 -148 -6 0 -12 -11 -12 -25 -1 -13
-16 -43 -34 -65 -17 -22 -28 -40 -23 -40 4 0 -1 -7 -11 -15 -22 -16 -28 -62
-10 -69 7 -3 25 11 40 30 68 81 93 106 105 98 9 -5 11 -1 7 14 -6 20 13 48 24
37 10 -11 57 55 52 72 -4 14 -3 15 4 5 7 -11 17 -3 42 32 19 25 37 46 42 46 4
0 8 5 8 11 0 6 22 39 48 73 27 33 64 83 82 111 19 27 40 56 47 65 16 20 100
138 236 330 101 144 143 198 122 160 -12 -22 -89 -134 -96 -140 -3 -3 -22 -30
-41 -60 -20 -30 -74 -109 -122 -175 -47 -66 -86 -129 -86 -141 0 -11 -9 -29
-20 -39 -11 -10 -20 -24 -20 -31 0 -7 -3 -14 -7 -16 -14 -6 -101 -126 -123
-167 -11 -23 -25 -41 -30 -41 -6 0 -10 -7 -10 -15 0 -9 -7 -18 -15 -21 -8 -4
-15 -12 -15 -19 0 -8 -6 -20 -13 -27 -14 -15 -52 -72 -49 -75 1 -2 -10 -15
-23 -29 -14 -15 -25 -34 -25 -42 0 -21 94 81 165 177 14 19 28 37 32 40 5 3
15 19 23 35 8 16 37 52 63 80 27 28 56 65 64 81 9 17 19 32 22 35 22 16 315
429 426 600 48 74 106 158 129 185 23 28 55 69 71 93 16 24 36 49 45 55 10 7
20 21 23 32 6 19 87 111 87 100 0 -14 -41 -82 -63 -105 -13 -14 -30 -37 -38
-52 -41 -74 -55 -98 -95 -153 -24 -33 -48 -65 -53 -71 -16 -20 -42 -74 -35
-74 4 0 16 8 28 17 12 11 8 3 -10 -22 -16 -22 -35 -44 -41 -48 -12 -8 -19 -37
-8 -37 2 0 28 24 56 53 l52 52 -23 -40 c-12 -22 -31 -47 -41 -57 -11 -9 -19
-21 -19 -28 0 -6 -13 -31 -30 -55 -56 -81 -27 -105 34 -30 21 25 44 45 52 45
8 0 13 3 13 8 -3 19 2 32 14 32 18 0 79 74 237 285 144 192 167 220 154 195
-7 -14 -45 -65 -126 -173 -16 -20 -27 -41 -25 -45 3 -4 -24 -45 -59 -92 -35
-47 -64 -90 -64 -97 0 -6 -3 -13 -8 -15 -13 -5 -114 -149 -108 -155 7 -7 36
22 104 107 34 41 78 94 98 117 20 23 44 52 53 66 9 13 61 84 116 158 239 318
438 632 725 1139 73 129 150 260 171 290 20 30 54 92 75 137 20 45 41 81 46
80 5 -1 15 14 23 33 66 175 85 228 85 242 0 8 11 36 25 62 14 26 25 53 25 60
0 8 7 19 15 26 8 7 15 25 15 41 0 16 9 45 19 65 26 48 56 177 47 200 -4 11
-10 14 -14 8 -4 -6 -14 -13 -23 -17 -9 -3 -24 -25 -32 -49 -9 -24 -16 -35 -16
-26 -1 10 10 43 24 74 14 32 23 59 21 62 -3 2 -25 -10 -50 -27 -25 -16 -46
-27 -46 -23 0 4 11 25 25 47 13 22 25 48 25 58 0 11 8 31 18 45 24 36 45 99
37 112 -9 15 -47 1 -65 -24 -8 -12 -29 -36 -47 -53 -18 -18 -30 -33 -27 -33
17 0 -31 -59 -65 -80 -22 -13 -46 -37 -52 -52 -12 -29 -23 -35 -34 -17 -4 5 5
27 19 48 14 20 26 47 26 60 0 13 17 62 39 110 58 130 99 285 78 298 -5 3 -14
-2 -19 -11 -5 -9 -15 -16 -23 -16 -13 0 -53 -75 -70 -128 -4 -13 -9 -22 -11
-19 -6 6 24 95 57 165 35 76 37 93 6 64 -13 -12 -29 -22 -36 -22 -6 0 -23 -11
-36 -25 -46 -45 -38 -24 83 218 13 27 22 50 20 51 -1 2 -22 8 -45 13 -29 7
-45 7 -52 0 -20 -20 -12 11 25 100 24 59 32 89 25 96 -6 6 -12 9 -13 6 -2 -2
-13 -22 -24 -44 -12 -22 -26 -39 -30 -37 -5 2 -11 -5 -15 -15 -6 -14 -8 -13
-8 9 -1 36 -14 42 -43 18 l-25 -19 4 27 c4 24 3 25 -9 10 -9 -11 -19 -14 -28
-8 -13 8 -8 26 29 114 2 5 -10 -1 -28 -13 -17 -12 -31 -28 -31 -35 0 -15 -28
-42 -35 -34 -3 3 0 19 6 37 20 58 -4 57 -56 -1 -28 -31 -55 -52 -68 -53 -14 0
-26 -11 -35 -30 -25 -54 -63 -106 -72 -100 -15 9 -12 68 5 102 8 16 44 61 81
99 78 81 130 156 139 201 6 29 3 33 -32 51 -21 11 -51 22 -68 26 -29 7 -29 7
-10 -8 19 -15 19 -15 -7 -16 -21 0 -26 -4 -21 -17 4 -11 3 -14 -5 -9 -8 5 -12
0 -12 -13 0 -12 5 -21 12 -21 6 0 3 -6 -7 -14 -11 -8 -24 -12 -29 -8 -5 3 -7
-2 -3 -10 5 -14 3 -15 -21 -2 -25 13 -27 12 -36 -9 -5 -12 -8 -26 -7 -31 1 -5
-5 -6 -14 -3 -19 8 -19 0 0 -36 14 -27 11 -57 -6 -57 -5 0 -9 -7 -9 -15 0 -18
-50 -21 -51 -2 -1 6 -4 1 -8 -13 -4 -14 -3 -28 3 -32 18 -12 -23 -47 -50 -42
-18 3 -22 1 -18 -11 8 -19 -15 -45 -76 -89 l-45 -33 90 137 c86 129 185 313
185 342 0 38 -178 193 -199 173 -3 -4 1 -12 10 -18 25 -19 30 -47 14 -70 -8
-12 -15 -16 -15 -9 0 6 -7 12 -15 12 -8 0 -15 5 -15 10 0 6 -5 10 -11 10 -6 0
-8 -9 -3 -22 6 -21 5 -21 -10 -9 -14 12 -19 12 -26 2 -6 -11 -8 -11 -12 0 -3
8 -9 11 -13 6 -5 -4 2 -18 15 -32 l23 -25 -22 -8 c-21 -8 -22 -9 -6 -22 16
-14 16 -15 -6 -21 -13 -3 -23 -11 -22 -17 4 -17 -14 -15 -21 3 -3 8 -1 15 4
15 6 0 10 4 10 9 0 6 -9 9 -19 8 -15 -1 -17 -5 -11 -23 6 -15 3 -25 -10 -37
-10 -8 -42 -54 -71 -102 -41 -67 -57 -85 -71 -82 -10 3 -16 2 -13 -3 8 -13
-27 -21 -41 -9 -18 15 -29 -11 -20 -47 5 -20 3 -27 -14 -31 -21 -5 -28 -23
-10 -23 7 0 7 -7 0 -21 -9 -16 -14 -18 -26 -8 -9 7 -14 8 -14 1 0 -6 5 -14 11
-17 16 -11 5 -28 -21 -32 -31 -5 -35 -10 -22 -26 9 -11 6 -19 -14 -38 -18 -17
-24 -31 -21 -49 3 -16 -10 -54 -39 -112 -42 -83 -52 -96 -67 -82 -9 10 4 34
19 34 8 0 14 4 14 9 0 6 16 37 35 70 38 65 42 76 22 68 -53 -20 -23 40 191
383 36 58 92 147 125 198 33 51 57 96 53 99 -6 7 -28 -19 -83 -99 -40 -58
-131 -193 -150 -224 -7 -10 -6 -2 2 19 24 60 2 43 -29 -24 -19 -39 -32 -56
-37 -48 -4 7 1 30 12 51 25 50 7 49 -23 -1 -32 -53 -98 -152 -119 -176 -9 -11
-19 -29 -21 -40 -4 -26 -41 -27 -46 -1 -3 11 0 16 7 12 6 -4 14 1 18 11 3 10
13 26 20 35 8 9 12 21 9 26 -3 6 2 8 14 5 15 -4 20 0 20 16 0 12 5 19 10 16
17 -10 11 51 -6 65 -8 8 -20 22 -25 32 -13 25 5 24 31 -2 21 -21 46 -18 34 3
-5 8 -3 8 7 0 23 -22 29 -14 29 40 0 50 15 85 46 112 6 6 28 54 49 107 24 64
41 96 49 91 8 -4 8 -2 -1 7 -9 9 -8 21 2 50 28 79 23 125 -16 145 -35 18 -62
6 -51 -23 3 -10 -8 -5 -30 14 -60 52 -190 105 -204 83 -3 -5 4 -9 14 -9 25 0
41 -20 33 -42 -6 -16 -9 -16 -34 -3 -25 13 -26 13 -17 -4 8 -16 6 -18 -20 -15
-36 4 -40 -13 -5 -22 21 -5 23 -9 13 -21 -9 -11 -9 -16 0 -22 7 -4 4 -11 -10
-20 -18 -11 -20 -11 -14 4 4 11 2 15 -6 13 -17 -6 -18 -58 -1 -58 12 0 14 -5
17 -42 1 -7 -5 -12 -12 -10 -7 1 -12 -5 -10 -15 2 -11 -8 -22 -24 -31 -27 -13
-38 -32 -18 -32 6 0 10 -7 10 -15 0 -17 -16 -20 -25 -4 -4 6 -21 9 -38 7 -36
-3 -36 -7 -11 96 15 62 15 71 1 100 -14 27 -16 28 -16 9 -1 -16 -7 -23 -21
-23 -12 0 -17 -5 -14 -14 3 -8 -3 -16 -16 -19 -12 -3 -19 -10 -16 -15 9 -15
-70 -52 -83 -39 -17 17 -13 35 17 80 51 74 83 188 67 236 -7 24 -25 28 -25 6
0 -8 -9 -15 -20 -15 -12 0 -17 -5 -14 -14 3 -8 -4 -16 -17 -19 -13 -4 -20 -9
-16 -13 9 -9 -23 -33 -45 -34 -10 0 -18 -5 -18 -12 0 -6 -3 -9 -6 -6 -3 3 9
34 26 67 33 66 32 81 -5 81 -17 0 -25 -7 -30 -28 -6 -31 -52 -89 -61 -79 -4 4
-2 12 3 19 6 7 13 22 15 33 3 11 9 28 13 37 6 15 1 17 -40 14 l-46 -2 -45 -90
c-25 -49 -71 -141 -103 -204 -32 -63 -78 -155 -101 -205 -24 -49 -48 -99 -53
-110 -63 -119 -66 -127 -49 -121 11 4 7 -3 -8 -17 -14 -12 -50 -71 -79 -132
-30 -60 -62 -119 -71 -130 -10 -11 -26 -42 -36 -70 -10 -27 -29 -65 -41 -84
-13 -19 -23 -38 -23 -43 0 -6 -8 -22 -19 -36 -10 -15 -40 -67 -66 -117 -54
-102 -64 -117 -76 -110 -4 3 -12 -3 -18 -12 -5 -10 -13 -15 -16 -11 -4 4 2 20
14 36 12 17 21 34 21 40 0 5 6 15 14 21 20 17 56 91 44 91 -6 0 0 16 11 36 12
20 19 39 16 42 -3 3 -6 3 -8 1 -1 -2 -16 -23 -32 -47 -20 -31 -31 -39 -37 -30
-13 20 -55 -41 -117 -171 -12 -24 -24 -41 -27 -38 -8 8 40 127 76 188 17 27
30 56 30 65 0 8 4 22 9 32 5 9 17 34 27 54 13 26 21 34 27 25 7 -9 10 -9 13 0
12 29 125 193 133 193 30 0 -20 -140 -78 -218 -13 -18 -21 -35 -18 -38 7 -7
50 51 76 103 11 23 32 58 46 79 14 20 25 45 25 56 0 10 11 41 25 68 14 27 25
57 25 65 0 9 14 48 31 86 16 39 28 76 25 82 -2 7 -8 2 -11 -10 -4 -13 -11 -20
-16 -17 -5 3 -18 -10 -29 -28 l-21 -33 7 30 c3 17 20 50 37 74 19 27 26 46 20
48 -7 3 -9 11 -6 20 4 11 2 14 -5 9 -23 -14 -12 28 37 133 26 58 51 122 55
142 3 21 13 42 21 49 18 15 19 6 4 -22 -6 -11 -9 -22 -6 -24 6 -7 67 83 67
100 0 9 5 16 11 16 6 0 8 7 5 16 -3 8 -2 12 4 9 6 -3 10 -2 10 4 0 5 16 27 35
48 30 32 74 128 64 137 -2 2 -16 6 -31 10 -24 5 -29 1 -61 -57 -19 -34 -38
-73 -42 -87 -9 -28 -75 -142 -105 -180 -12 -15 -7 1 12 40 18 36 33 70 34 77
1 6 23 54 48 105 25 52 46 97 46 101 0 3 -12 -1 -27 -9 -16 -7 -35 -14 -43
-14 -20 0 -50 -35 -50 -57 0 -14 -4 -13 -24 6 -29 27 -63 25 -58 -4 3 -16 1
-17 -11 -7 -8 7 -13 22 -10 32 8 29 -6 24 -17 -5 -5 -14 -16 -25 -24 -23 -15
3 -90 -82 -109 -124 -6 -16 -16 -28 -20 -28 -5 0 -5 -4 -2 -10 3 -5 -1 -10
-10 -10 -9 0 -15 -6 -12 -12 6 -18 -12 -50 -24 -43 -5 4 -9 1 -9 -5 0 -7 -8
-9 -20 -5 -24 8 -28 -17 -6 -37 11 -11 10 -17 -7 -40 -17 -23 -23 -25 -35 -15
-13 10 -15 7 -10 -28 4 -22 4 -34 1 -27 -2 6 -8 10 -13 7 -4 -3 -13 2 -20 10
-28 34 -34 14 -15 -51 4 -12 2 -25 -5 -29 -15 -9 -21 -3 -23 24 -1 11 -5 21
-10 21 -4 0 -5 5 -2 10 4 6 2 17 -4 24 -9 10 -5 16 19 26 32 13 36 36 6 33
-15 -1 -14 3 5 23 25 26 39 33 19 9 -8 -10 -9 -15 -2 -15 18 0 83 70 94 101 5
16 14 29 19 29 5 0 9 5 9 11 0 5 -4 7 -10 4 -16 -10 -12 5 11 41 16 27 18 34
6 34 -8 0 -23 12 -32 27 -17 25 -18 26 -31 8 -10 -14 -11 -22 -2 -32 6 -8 7
-13 2 -11 -12 4 -48 -24 -52 -41 -1 -7 2 -19 8 -26 7 -8 7 -16 2 -19 -6 -3
-15 1 -22 9 -13 16 -35 21 -26 6 3 -4 -15 -7 -39 -5 -49 4 -55 -1 -27 -23 15
-12 11 -13 -30 -9 -44 4 -46 3 -44 -21 3 -24 21 -43 41 -43 6 1 1 7 -10 16
-20 15 -20 15 0 12 11 -2 26 -8 34 -12 11 -7 13 -5 8 7 -4 11 -2 14 9 10 19
-7 18 -12 -12 -39 -21 -20 -60 -36 -41 -17 9 9 -33 37 -60 41 -13 1 -23 -2
-23 -7 0 -6 -7 -8 -15 -5 -8 4 -15 1 -15 -6 0 -6 -5 -8 -11 -4 -16 9 -30 -18
-17 -33 15 -19 -2 -16 -24 4 -11 10 -18 13 -16 7 5 -19 -63 -75 -83 -69 -11 4
-19 2 -19 -4 0 -18 -50 -61 -70 -61 -11 0 -20 -7 -20 -15 0 -8 -4 -15 -10 -15
-5 0 -10 -8 -10 -17 0 -9 -3 -14 -6 -10 -8 7 -34 -17 -34 -32 0 -6 -5 -11 -11
-11 -7 0 -9 -9 -6 -23 4 -12 2 -29 -3 -37 -7 -11 -12 -10 -28 10 l-19 24 -12
-22 c-7 -13 -17 -20 -22 -16 -6 3 -18 -3 -27 -14 -14 -16 -22 -18 -37 -10 -11
6 -17 7 -13 3 4 -4 0 -14 -10 -21 -10 -8 -12 -13 -4 -14 6 0 12 -5 12 -11 0
-6 21 -39 46 -72 30 -40 37 -53 19 -37 -15 14 -38 42 -52 63 -13 21 -28 35
-34 31 -6 -4 -14 -1 -18 5 -4 6 -13 -11 -20 -39 -8 -30 -18 -50 -27 -50 -8 0
-14 -4 -14 -9 0 -5 -7 -11 -15 -14 -11 -5 -12 -1 -4 20 5 14 7 28 5 31 -3 3
-8 -2 -12 -11 -3 -9 -11 -14 -18 -11 -7 3 -20 -12 -31 -36 -10 -22 -22 -40
-26 -40 -4 0 -13 -17 -19 -37 -18 -55 -33 -66 -24 -18 3 22 11 48 16 58 5 10
5 17 -1 17 -6 0 -17 -16 -26 -35 -9 -19 -27 -44 -39 -57 -30 -32 -79 -109 -72
-115 2 -3 -11 -29 -30 -58 -19 -30 -34 -58 -34 -63 0 -5 -7 -15 -15 -22 -22
-18 -140 -224 -196 -340 -16 -36 -60 -116 -97 -178 -37 -62 -74 -125 -82 -140
-8 -15 -18 -29 -21 -32 -9 -7 -149 -246 -149 -254 0 -4 -10 -23 -23 -44 -13
-20 -52 -91 -87 -157 -83 -156 -100 -184 -100 -163 0 9 5 20 11 24 11 6 48 85
54 114 2 8 23 51 48 95 24 44 47 90 51 102 4 13 13 29 19 35 15 15 97 176 97
190 0 5 20 39 43 76 55 84 157 267 157 280 0 5 18 37 40 70 22 33 40 63 40 66
0 4 33 67 74 139 40 73 81 148 90 167 16 34 16 34 -1 14 -10 -12 -24 -30 -31
-40 -7 -11 -5 -4 4 14 17 38 14 50 -9 28 -8 -8 -16 -13 -19 -11 -2 2 -23 -25
-47 -61 -24 -35 -45 -64 -48 -64 -5 0 -2 5 35 63 13 22 21 41 19 43 -13 14
-56 -12 -75 -44 -12 -20 -22 -30 -22 -21 0 8 7 24 15 35 21 28 18 43 -4 17
l-18 -22 -16 35 c-9 19 -13 34 -8 34 9 0 157 260 154 270 -7 20 -29 -1 -78
-74 -31 -47 -61 -88 -66 -92 -5 -3 -9 -14 -9 -25 0 -11 -4 -18 -9 -14 -6 3
-21 -11 -35 -32 -33 -48 -54 -52 -48 -9 5 28 3 30 -12 17 -9 -7 -16 -21 -17
-30 0 -9 -3 -11 -5 -4 -6 13 35 75 45 69 3 -2 7 7 7 20 1 13 -1 24 -5 24 -13
-1 -81 -71 -81 -85 0 -7 -4 -17 -10 -20 -5 -3 -10 -16 -10 -27 0 -12 -3 -18
-7 -14 -4 3 -13 -4 -20 -16 -14 -22 -14 -22 -10 10 2 22 -1 32 -10 32 -18 0
-16 20 5 43 12 15 13 18 2 12 -12 -6 -13 -5 -3 5 11 12 15 11 28 -6 12 -16 14
-16 9 -1 -4 12 -1 17 12 17 15 0 16 2 5 9 -10 7 -12 21 -7 55 4 25 11 48 15
51 5 3 7 30 5 61 -3 44 0 65 16 91 11 19 20 39 20 44 0 6 9 28 19 50 11 21 15
37 10 33 -5 -3 -9 10 -9 29 0 31 -4 35 -31 41 -34 6 -53 0 -44 -15 4 -5 -1 -9
-9 -9 -9 0 -16 -6 -16 -14 0 -7 -15 -21 -32 -29 -31 -15 -33 -15 -40 4 -9 24
-24 24 -38 -1 -6 -10 -16 -17 -23 -14 -14 5 -37 -39 -56 -106 -10 -32 -10 -30
-6 18 3 29 14 79 25 109 11 31 18 59 15 62 -3 2 -18 -8 -33 -22 -16 -15 -31
-24 -35 -20 -4 3 -7 1 -7 -6 0 -7 -4 -10 -9 -6 -6 3 -21 -7 -35 -22 -35 -38
-35 -10 0 58 14 28 27 63 29 78 2 15 12 42 23 60 11 18 17 41 15 52 -3 10 0
19 6 19 26 0 10 38 -20 49 -43 15 -59 14 -59 -4 0 -8 -5 -15 -10 -15 -6 0 -20
-16 -31 -35 -12 -19 -27 -35 -35 -35 -8 0 -14 -9 -14 -20 0 -11 -7 -20 -15
-20 -9 0 -15 -6 -13 -12 4 -24 -23 -87 -35 -82 -7 2 -29 -11 -50 -30 -32 -29
-37 -31 -37 -14 0 13 -4 17 -12 12 -7 -5 5 16 26 44 21 29 36 56 32 59 -3 4 1
14 9 23 9 10 15 21 14 26 -1 5 0 16 4 24 11 30 15 100 5 106 -6 4 -5 9 3 15
18 11 24 62 7 57 -7 -3 -14 -17 -16 -31 -4 -29 -12 -33 -30 -15 -9 9 -12 9
-12 1 0 -7 9 -15 20 -18 21 -7 24 -18 10 -50 -8 -18 -9 -18 -9 -2 -1 15 -6 13
-27 -12 -14 -17 -23 -35 -19 -40 3 -6 -3 -19 -15 -31 -11 -11 -20 -28 -20 -39
0 -10 -6 -24 -14 -30 -8 -7 -12 -21 -9 -31 3 -12 0 -20 -7 -20 -7 0 -10 -7 -6
-15 3 -9 0 -15 -9 -15 -8 0 -15 -5 -15 -11 0 -6 -6 -9 -14 -6 -8 3 -17 -1 -20
-9 -8 -22 -7 -26 4 -19 6 3 10 1 10 -6 0 -7 8 -9 21 -6 17 4 18 3 8 -9 -8 -10
-15 -11 -24 -4 -10 8 -16 7 -22 -2 -18 -29 -33 -54 -42 -74 -5 -11 -20 -33
-34 -50 -22 -26 -57 -96 -55 -110 0 -3 -21 -30 -46 -60 -26 -29 -48 -57 -49
-60 -1 -4 -14 -20 -29 -35 -16 -15 -28 -37 -28 -48 0 -11 -13 -30 -30 -43 -27
-19 -45 -58 -20 -43 18 11 10 -4 -21 -39 -17 -20 -28 -40 -24 -45 3 -6 -3 -16
-15 -23 -11 -7 -20 -18 -20 -25 0 -6 -5 -15 -11 -19 -7 -4 -9 0 -5 13 9 28 -3
56 -18 44 -8 -7 -12 -4 -13 12 -3 30 53 124 77 130 13 3 20 14 20 30 0 23 26
97 34 97 2 0 2 -10 -2 -22 -8 -34 12 -14 33 32 10 22 24 40 31 40 16 0 81 56
94 81 12 21 3 49 -15 49 -8 0 -23 -13 -35 -30 -21 -29 -40 -39 -40 -21 0 5 8
26 17 47 9 22 16 42 15 45 -1 4 8 15 18 24 12 11 20 13 20 7 0 -7 6 -12 13
-12 18 0 60 48 52 60 -3 5 -1 19 5 31 8 14 9 24 2 31 -7 7 -4 19 9 38 11 14
26 44 34 66 8 24 19 38 28 36 8 -1 17 5 21 13 7 19 -11 68 -23 61 -5 -3 -8 9
-7 27 1 25 -3 32 -17 31 -10 -1 -16 3 -14 10 2 6 0 21 -4 33 -5 14 -5 22 1 20
12 -2 131 219 123 227 -10 9 -53 7 -53 -3 0 -5 -15 -31 -33 -57 -19 -27 -37
-62 -42 -79 -4 -16 -10 -24 -12 -17 -8 21 -20 14 -44 -25 -13 -21 -29 -45 -36
-53 -7 -8 -20 -24 -28 -35 -14 -18 -14 -17 0 13 9 19 11 32 5 32 -7 0 -8 6 -1
18 10 20 -1 48 -16 39 -5 -3 -19 -26 -31 -51 -21 -41 -42 -67 -42 -51 0 11 32
70 57 103 30 39 57 102 44 102 -5 0 -28 -17 -50 -38 -43 -40 -81 -103 -81
-134 0 -10 -4 -18 -8 -18 -5 0 -21 -27 -37 -60 -15 -32 -33 -61 -40 -63 -6 -3
-17 -23 -25 -46 -9 -28 -17 -38 -23 -32 -7 7 -5 16 5 28 8 10 13 23 11 30 -7
19 -44 -25 -46 -54 -1 -15 -8 -28 -15 -31 -7 -2 -10 2 -6 12 3 9 1 16 -4 16
-6 0 -25 -27 -43 -60 -18 -32 -35 -57 -37 -55 -2 2 8 23 22 48 14 24 26 53 26
64 0 11 7 26 15 33 8 7 15 19 15 28 0 8 3 12 7 9 8 -9 32 24 33 46 0 16 26 65
41 77 7 6 45 70 91 155 43 79 44 83 23 65 -10 -8 -16 -10 -12 -3 4 7 2 21 -5
32 -10 16 -9 26 5 56 21 43 21 55 3 55 -12 0 -102 -144 -119 -190 -5 -13 -5
-13 -6 0 0 8 14 43 32 76 32 59 33 62 14 73 -14 9 -17 9 -12 1 9 -14 -34 -112
-46 -104 -4 2 -10 -5 -14 -16 -3 -11 -15 -25 -26 -31 -12 -6 -19 -16 -16 -22
2 -7 -7 -20 -20 -31 l-24 -18 20 41 c12 22 46 81 76 131 30 50 55 93 55 95 0
3 -13 5 -30 5 -21 0 -30 -5 -30 -16 0 -8 -5 -12 -10 -9 -6 4 -8 11 -5 16 13
21 -18 7 -42 -18 -14 -16 -20 -20 -13 -10 17 23 5 34 -15 13 -9 -9 -21 -16
-26 -16 -5 0 -9 -7 -9 -16 0 -9 -9 -27 -20 -41 -11 -14 -20 -32 -20 -39 0 -7
-9 -15 -19 -19 -15 -4 -19 -13 -16 -36 2 -16 0 -27 -5 -24 -5 3 -12 0 -16 -6
-4 -8 -3 -9 4 -5 7 4 12 1 12 -8 0 -9 -4 -16 -10 -16 -5 0 -10 -9 -10 -20 0
-11 -9 -29 -19 -39 -11 -11 -27 -34 -36 -50 -19 -37 -29 -40 -21 -6 4 15 2 25
-4 25 -7 0 -4 13 6 30 13 21 21 26 27 17 6 -8 7 -6 3 5 -3 10 6 40 19 67 14
27 25 54 25 60 0 28 -20 4 -60 -74 -24 -46 -47 -82 -52 -79 -5 3 -25 -12 -44
-33 -30 -33 -33 -34 -17 -8 10 16 26 38 36 47 9 10 17 24 17 31 0 6 12 23 25
36 25 23 35 48 15 36 -6 -4 4 17 22 47 18 29 42 70 52 90 10 21 23 35 27 32 5
-3 6 1 4 8 -3 8 4 24 16 37 11 12 19 25 16 27 -3 3 -8 1 -12 -5z m277 -198
c-5 -10 -8 -24 -6 -31 1 -7 0 -8 -3 -2 -2 5 -9 7 -15 4 -5 -3 -2 8 7 26 9 17
19 30 22 27 2 -3 0 -14 -5 -24z m-264 -13 c-14 -22 -24 -19 -15 5 4 8 11 15
17 15 6 0 6 -7 -2 -20z m-447 -37 c-12 -20 -14 -14 -5 12 4 9 9 14 11 11 3 -2
0 -13 -6 -23z m4344 18 c11 -19 -76 -153 -91 -139 -2 3 5 23 16 46 11 22 20
46 20 52 0 35 40 65 55 41z m-4198 -23 c-3 -8 -6 -5 -6 6 -1 11 2 17 5 13 3
-3 4 -12 1 -19z m3303 10 c0 -7 -5 -20 -11 -28 -9 -13 -10 -12 -5 3 3 9 1 17
-4 17 -6 0 -10 5 -10 10 0 6 7 10 15 10 8 0 15 -6 15 -12z m-55 -41 c3 -4 2
-5 -1 -3 -3 3 -16 -7 -29 -22 -25 -29 -29 -29 -39 5 -5 16 -2 22 11 25 25 5
52 3 58 -5z m222 -46 c-12 -27 -15 -30 -26 -17 -10 12 -9 20 5 41 23 35 38 18
21 -24z m-3496 16 c-13 -13 -26 -3 -16 12 3 6 11 8 17 5 6 -4 6 -10 -1 -17z
m3339 13 c0 -5 -5 -10 -11 -10 -5 0 -7 5 -4 10 3 6 8 10 11 10 2 0 4 -4 4 -10z
m-2907 -15 c-3 -9 -8 -14 -10 -11 -3 3 -2 9 2 15 9 16 15 13 8 -4z m-1284 -24
c-8 -10 -36 -50 -64 -89 -48 -69 -75 -93 -39 -35 21 33 107 143 113 143 2 0
-3 -8 -10 -19z m822 4 c1 -8 2 -21 4 -27 1 -7 -4 -23 -12 -35 -7 -12 -13 -29
-13 -38 0 -9 -7 -18 -15 -21 -8 -4 -15 -11 -15 -18 0 -6 -9 -17 -20 -24 -23
-14 -27 0 -5 18 8 7 15 21 15 31 0 11 4 19 8 19 11 0 43 90 36 101 -3 5 0 9 5
9 6 0 12 -7 12 -15z m919 -1 c0 -8 -5 -12 -10 -9 -6 4 -8 11 -5 16 9 14 15 11
15 -7z m-1670 -10 c0 -8 -5 -12 -10 -9 -6 4 -8 11 -5 16 9 14 15 11 15 -7z
m4303 -4 c-3 -12 -8 -19 -11 -16 -5 6 5 36 12 36 2 0 2 -9 -1 -20z m-3162 -12
c-5 -13 -17 -48 -26 -79 -18 -62 -79 -184 -98 -196 -7 -4 -4 5 6 20 15 23 15
27 2 27 -18 0 -18 8 0 40 23 40 17 48 -10 15 -13 -16 -24 -24 -25 -17 0 6 5
12 10 12 6 0 10 6 10 13 1 6 17 30 36 52 20 22 29 28 20 14 -15 -24 -13 -39 6
-39 5 0 7 4 3 9 -3 5 -1 12 5 16 14 9 43 73 36 83 -5 8 20 52 29 52 3 0 1 -10
-4 -22z m44 -8 c-9 -17 -20 -28 -25 -25 -4 3 1 16 13 30 29 32 31 31 12 -5z
m338 -15 c-3 -9 -8 -14 -10 -11 -3 3 -2 9 2 15 9 16 15 13 8 -4z m2377 -5 c6
-11 8 -20 4 -20 -3 0 -1 -6 5 -14 8 -9 8 -16 2 -20 -6 -4 -8 -13 -4 -21 3 -10
-1 -15 -15 -15 -11 0 -23 -8 -27 -19 -3 -10 -13 -18 -23 -17 -9 0 -21 -9 -27
-21 -6 -14 -19 -23 -32 -23 -13 0 -23 -5 -23 -11 0 -6 -11 -20 -25 -31 -20
-16 -23 -23 -15 -39 11 -20 5 -24 -35 -19 -20 2 -73 40 -74 53 -1 4 8 7 20 7
16 0 19 4 15 17 -5 13 -1 12 17 -5 15 -14 27 -19 31 -13 4 5 -5 18 -19 27 -14
9 -23 19 -21 22 3 3 12 0 20 -7 8 -6 24 -14 36 -16 18 -3 20 -1 14 18 -3 12
-10 26 -15 32 -5 5 -9 14 -9 20 0 5 5 2 11 -8 14 -24 32 -12 19 13 -13 25 -13
37 1 23 14 -14 42 9 37 31 -4 21 -2 21 57 1 15 -5 16 -8 6 -14 -10 -7 -10 -10
-1 -16 26 -16 30 12 6 48 -18 26 -20 34 -9 30 10 -4 14 -2 10 5 -7 10 9 18 40
21 7 0 17 -8 23 -19z m556 -8 c-17 -16 -18 -16 -5 5 7 12 15 20 18 17 3 -2 -3
-12 -13 -22z m-3255 1 c-5 -10 -24 -48 -42 -86 -17 -37 -34 -65 -37 -63 -5 5
41 109 64 144 17 26 28 30 15 5z m-372 -93 c-17 -28 -34 -49 -36 -46 -3 3 9
26 26 52 17 26 31 52 32 58 0 7 2 7 5 -1 3 -6 -9 -34 -27 -63z m4253 -5 c-9
-19 -20 -35 -24 -35 -4 0 -8 -5 -8 -10 0 -19 -58 -68 -89 -75 -20 -4 -28 -11
-24 -21 6 -17 -13 -19 -23 -2 -4 6 0 16 9 23 10 7 17 18 17 25 0 8 8 10 21 7
15 -4 22 1 30 21 5 15 16 40 25 55 9 16 14 37 11 48 -3 10 -1 16 4 13 5 -3 12
2 15 11 6 14 9 14 29 -5 21 -20 21 -22 7 -55z m-3137 25 c-3 -5 -10 -10 -16
-10 -5 0 -9 5 -9 10 0 6 7 10 16 10 8 0 12 -4 9 -10z m3638 -92 c-7 -35 -15
-35 -30 -3 -7 16 -7 23 -1 19 7 -5 9 3 4 22 -7 29 -7 29 13 9 14 -14 18 -28
14 -47z m-4916 28 c-3 -7 1 -23 9 -35 14 -19 13 -21 0 -21 -9 0 -16 -4 -16
-10 0 -5 -6 -10 -13 -10 -7 0 -23 -17 -36 -37 -12 -21 -20 -29 -16 -18 4 11
11 34 15 50 12 45 21 65 31 65 5 0 9 7 9 15 0 8 5 15 11 15 6 0 9 -6 6 -14z
m3024 -3 c13 -16 12 -17 -3 -4 -10 7 -18 15 -18 17 0 8 8 3 21 -13z m1529 -14
c0 -5 -7 -9 -15 -9 -17 0 -20 -16 -5 -25 15 -9 1 -27 -16 -21 -8 3 -14 1 -14
-4 0 -6 7 -10 16 -10 9 0 14 -5 12 -11 -2 -6 -7 -10 -11 -10 -4 1 -13 1 -20 1
-18 0 -20 48 -2 73 9 12 19 21 23 20 4 -1 5 6 4 15 -3 13 -1 14 12 3 9 -8 16
-17 16 -22z m-3320 1 c-9 -16 -40 -19 -40 -4 0 4 35 20 48 23 1 1 -2 -8 -8
-19z m2741 -13 c-10 -9 -11 -8 -5 6 3 10 9 15 12 12 3 -3 0 -11 -7 -18z m-639
-57 c-26 -48 -29 -50 -69 -50 -24 0 -43 4 -43 10 0 5 7 7 15 4 8 -4 15 -1 15
5 0 6 -4 11 -10 11 -5 0 -10 7 -10 15 0 17 16 20 25 5 9 -15 45 12 45 34 0 20
0 20 16 0 15 -18 15 -18 9 9 -5 25 -4 27 14 18 18 -10 18 -12 -7 -61z m-2892
50 c0 -5 -5 -10 -11 -10 -5 0 -7 5 -4 10 3 6 8 10 11 10 2 0 4 -4 4 -10z
m-137 -31 c-23 -38 -67 -82 -57 -56 3 9 10 17 15 17 5 0 12 8 16 18 6 17 33
52 40 52 2 0 -4 -14 -14 -31z m2677 -91 c-11 -4 -20 -13 -20 -19 0 -7 -8 -5
-20 6 -11 10 -20 31 -20 47 0 16 -5 38 -11 50 -6 11 12 -2 40 -28 47 -44 49
-49 31 -56z m-2877 77 c-3 -9 -8 -14 -10 -11 -3 3 -2 9 2 15 9 16 15 13 8 -4z
m3554 -128 c-56 -107 -137 -242 -137 -227 0 11 103 205 120 228 11 14 20 29
20 35 0 15 51 99 57 94 3 -3 -24 -62 -60 -130z m-124 98 c-3 -9 -8 -14 -10
-11 -3 3 -2 9 2 15 9 16 15 13 8 -4z m-3247 -23 c-17 -16 -18 -16 -5 5 7 12
15 20 18 17 3 -2 -3 -12 -13 -22z m34 -22 c-11 -22 -23 -40 -25 -40 -3 0 4 18
15 40 11 22 23 40 25 40 3 0 -4 -18 -15 -40z m980 30 c0 -5 -5 -10 -11 -10 -5
0 -7 5 -4 10 3 6 8 10 11 10 2 0 4 -4 4 -10z m3200 -11 c0 -5 7 -9 15 -9 8 0
15 6 15 13 0 8 3 7 9 -3 6 -8 7 -18 5 -22 -3 -4 0 -8 6 -8 7 0 4 -7 -5 -16 -9
-9 -19 -13 -23 -10 -3 4 0 11 8 16 12 7 12 10 -3 16 -10 3 -20 4 -23 2 -7 -8
18 -58 27 -53 13 9 20 -31 10 -58 -5 -14 -16 -27 -23 -30 -10 -4 -10 -8 2 -16
8 -6 10 -11 4 -11 -7 0 -9 -10 -6 -25 3 -20 -1 -27 -23 -35 -35 -13 -38 -13
-31 5 3 8 1 15 -4 15 -6 0 -10 -9 -10 -21 0 -11 -5 -17 -10 -14 -6 4 -8 10 -5
15 3 5 1 11 -4 14 -13 8 -20 -67 -7 -77 8 -6 7 -10 -2 -14 -6 -2 -9 -9 -6 -14
4 -6 11 -6 19 1 10 8 14 4 17 -15 6 -28 -9 -33 -43 -15 -23 13 -26 2 -4 -14
14 -10 11 -16 -21 -46 -20 -19 -34 -29 -30 -22 4 6 3 12 -1 12 -13 0 -37 -31
-50 -65 -7 -16 -18 -43 -24 -60 -7 -16 -13 -32 -15 -35 -1 -3 -5 -15 -9 -27
-4 -13 -11 -20 -16 -18 -4 3 -1 24 7 47 8 23 17 54 19 70 3 16 10 37 15 46 26
51 68 152 62 152 -4 0 -24 -11 -43 -25 -20 -13 -39 -22 -41 -19 -3 2 -17 -7
-31 -20 -15 -14 -27 -21 -27 -15 0 6 -11 -3 -25 -18 l-24 -28 -1 26 c0 14 11
43 25 63 14 20 25 41 25 46 0 6 5 10 10 10 6 0 10 7 10 15 0 8 5 15 10 15 6 0
10 7 10 16 0 14 3 14 15 4 8 -7 15 -22 15 -34 0 -15 3 -17 8 -8 5 7 16 10 25
6 21 -8 51 83 34 105 -9 10 -7 16 6 26 9 7 17 18 17 25 0 8 8 10 21 7 15 -4
22 1 30 21 5 15 17 41 26 59 10 18 14 35 10 39 -10 10 25 33 40 27 7 -3 13 -9
13 -14z m726 -16 c-2 -38 -13 -53 -33 -46 -12 5 -15 2 -10 -9 3 -9 -2 -23 -12
-32 -30 -28 -32 -18 -6 34 14 28 30 50 35 50 5 0 7 7 4 15 -4 9 0 15 9 15 10
0 14 -9 13 -27z m-6226 -22 c-5 -11 -15 -23 -22 -27 -7 -5 -8 -2 -3 7 21 37
44 55 25 20z m1036 -13 c-9 -12 -16 -19 -16 -15 0 11 24 47 28 42 2 -2 -3 -14
-12 -27z m234 28 c0 -2 -8 -10 -17 -17 -16 -13 -17 -12 -4 4 13 16 21 21 21
13z m2660 -60 c-12 -12 -42 13 -33 27 3 5 1 7 -5 3 -6 -3 -13 -2 -16 3 -4 5 2
11 11 14 21 4 56 -34 43 -47z m1238 7 c-9 -10 -18 -27 -21 -38 -4 -16 -5 -15
-6 6 0 14 -6 30 -13 37 -9 9 -8 12 5 12 9 0 17 8 17 17 0 16 1 16 17 0 15 -15
15 -18 1 -34z m-4175 10 c-10 -10 -26 -30 -36 -43 -10 -14 -15 -18 -11 -10 12
27 56 81 61 76 2 -2 -4 -13 -14 -23z m2837 -17 c-7 -9 -17 -16 -22 -16 -16 0
-20 29 -6 44 11 12 15 12 27 1 12 -12 12 -17 1 -29z m372 21 c-3 -11 -1 -18 4
-15 5 3 17 -4 27 -14 17 -18 17 -19 0 -16 -12 2 -17 -2 -15 -14 3 -20 -35 -21
-42 -1 -8 20 -25 15 -23 -7 1 -14 8 -20 24 -20 24 0 31 -14 13 -25 -5 -3 -10
-15 -10 -26 0 -11 -7 -19 -16 -19 -8 0 -13 4 -10 9 3 5 -5 16 -19 25 -25 16
-25 16 -25 -13 0 -18 8 -34 21 -42 19 -13 20 -16 5 -44 -9 -17 -16 -36 -16
-42 0 -16 -15 -16 -40 -1 -27 17 -40 -1 -12 -19 27 -19 28 -37 4 -55 -10 -7
-21 -21 -25 -32 -6 -15 -10 -16 -22 -6 -15 12 -35 6 -35 -11 0 -5 5 -9 11 -9
5 0 7 5 3 12 -4 7 -3 8 4 4 17 -10 3 -36 -20 -36 -13 0 -18 -5 -15 -14 4 -10
1 -13 -7 -10 -10 4 -12 -2 -9 -19 3 -14 -2 -29 -11 -36 -9 -8 -16 -21 -16 -31
0 -9 -9 -28 -20 -41 -11 -13 -23 -28 -28 -34 -4 -5 -14 -24 -21 -42 -9 -22
-17 -30 -29 -26 -11 5 -14 2 -9 -10 4 -11 2 -14 -8 -11 -11 5 0 34 47 127 34
67 82 168 108 224 26 57 50 100 53 96 4 -3 13 -1 20 5 8 7 17 9 20 5 4 -3 7
-1 7 5 0 7 -7 12 -16 12 -11 0 -14 6 -8 23 13 44 50 103 61 100 6 -2 14 6 18
18 5 16 2 26 -11 36 -16 12 -16 13 -1 13 9 0 17 5 17 10 0 6 7 10 15 10 9 0
12 -6 8 -17 -5 -14 -3 -15 6 -7 10 9 10 17 2 32 -10 19 -8 21 18 20 23 -1 27
-5 23 -21z m1629 -3 c17 -8 28 -18 26 -21 -3 -3 -12 -1 -19 3 -14 9 -19 11
-44 13 -8 0 -12 6 -9 11 8 13 11 13 46 -6z m-2129 -16 c-7 -7 -12 -8 -12 -2 0
14 12 26 19 19 2 -3 -1 -11 -7 -17z m776 2 c-7 -10 -14 -17 -17 -15 -4 4 18
35 25 35 2 0 -1 -9 -8 -20z m-3477 -17 c-4 -14 -17 -33 -29 -41 -21 -14 -21
-12 4 27 15 22 29 41 30 41 1 0 -1 -12 -5 -27z m279 7 c-6 -11 -13 -20 -16
-20 -2 0 0 9 6 20 6 11 13 20 16 20 2 0 0 -9 -6 -20z m2624 -33 c-19 -11 -25
-6 -28 28 l-3 26 24 -22 c21 -20 21 -24 7 -32z m-3944 29 c0 -8 -5 -18 -12
-22 -7 -4 -8 -3 -4 4 4 7 2 12 -4 12 -6 0 -8 5 -5 10 9 15 25 12 25 -4z m1224
-51 c-48 -68 -68 -87 -37 -34 19 32 72 99 78 99 3 0 -16 -29 -41 -65z m1491
46 c3 -5 1 -12 -5 -16 -5 -3 -10 1 -10 9 0 18 6 21 15 7z m1073 -16 c-3 -3 -9
2 -12 12 -6 14 -5 15 5 6 7 -7 10 -15 7 -18z m1364 -11 c-9 -20 -18 -31 -20
-25 -7 21 -22 11 -22 -15 0 -15 -8 -34 -18 -43 -10 -9 -21 -24 -25 -33 -7 -21
-27 -24 -27 -5 1 25 47 117 55 110 4 -5 5 1 1 12 -4 11 -4 16 0 13 3 -4 12 -2
19 5 6 7 21 13 33 14 21 2 21 1 4 -33z m-3602 -4 c0 -11 -4 -20 -9 -20 -5 0
-7 9 -4 20 3 11 7 20 9 20 2 0 4 -9 4 -20z m2279 -17 c6 -11 11 -13 11 -5 0 9
7 9 30 -3 27 -14 29 -18 19 -38 -14 -27 -40 -57 -49 -57 -4 0 -19 24 -35 53
l-28 52 25 -23 c14 -13 25 -30 24 -39 0 -9 5 -18 12 -20 6 -3 12 0 12 6 0 6
-5 11 -11 11 -5 0 -7 5 -4 10 3 6 -3 24 -15 40 -12 17 -17 30 -11 30 5 0 15
-8 20 -17z m871 -2 c-17 -34 -11 -47 11 -21 l20 25 -16 -33 c-9 -18 -23 -36
-31 -39 -7 -3 -14 -11 -14 -18 0 -16 -25 -37 -33 -29 -7 8 55 133 66 134 4 0
3 -9 -3 -19z m-4755 -41 c-14 -22 -30 -52 -35 -65 -5 -14 -14 -25 -20 -25 -5
0 -10 -8 -10 -18 0 -26 -25 -58 -34 -44 -4 7 -4 18 1 25 4 6 8 14 8 17 0 3 11
23 25 45 14 22 26 44 29 49 7 16 54 66 58 62 3 -2 -7 -23 -22 -46z m1025 31
c-5 -11 -15 -23 -22 -27 -7 -5 -8 -2 -3 7 21 37 44 55 25 20z m1740 9 c0 -5
-2 -10 -4 -10 -3 0 -8 5 -11 10 -3 6 -1 10 4 10 6 0 11 -4 11 -10z m-1430 -4
c0 -2 -8 -10 -17 -17 -16 -13 -17 -12 -4 4 13 16 21 21 21 13z m2444 -47 c-6
-11 -34 -12 -35 -1 0 4 -2 17 -3 30 l-3 22 23 -21 c13 -12 21 -26 18 -30z
m2441 22 c-3 -6 -11 -11 -17 -11 -6 0 -6 6 2 15 14 17 26 13 15 -4z m-4765
-30 c-5 -11 -15 -23 -21 -27 -6 -3 -3 5 6 20 20 30 30 35 15 7z m-1000 -25 c0
-2 -8 -10 -17 -17 -16 -13 -17 -12 -4 4 13 16 21 21 21 13z m3268 -61 c28 -25
41 -31 54 -24 13 7 18 4 23 -11 3 -11 12 -20 18 -21 7 -1 1 -4 -13 -8 -16 -5
-24 -14 -23 -26 1 -14 -8 -9 -35 19 -48 51 -82 103 -82 124 1 15 2 15 11 -1 6
-10 27 -33 47 -52z m142 39 c15 -38 12 -42 -10 -14 -22 28 -25 40 -10 40 6 0
15 -12 20 -26z m1970 16 c0 -5 -4 -10 -10 -10 -5 0 -10 5 -10 10 0 6 5 10 10
10 6 0 10 -4 10 -10z m-2045 -20 c4 -6 10 -8 15 -5 5 3 20 -5 34 -17 19 -18
22 -25 13 -33 -9 -8 -23 0 -51 27 -21 21 -34 38 -28 38 6 0 14 -5 17 -10z
m-1622 -40 c-3 -13 -14 -20 -29 -20 -13 0 -24 2 -24 5 0 3 47 32 57 35 0 0 -1
-9 -4 -20z m1885 -47 c-14 -21 -31 -47 -37 -58 -6 -12 -11 -14 -11 -6 0 11 -3
11 -15 1 -23 -19 -19 6 5 30 12 12 17 26 13 37 -5 15 -3 15 11 -2 17 -20 17
-20 11 3 -5 18 -2 22 14 22 12 0 21 5 21 12 0 6 3 8 6 5 4 -4 -4 -24 -18 -44z
m-3668 17 c-6 -11 -13 -20 -16 -20 -2 0 0 9 6 20 6 11 13 20 16 20 2 0 0 -9
-6 -20z m520 -35 c-17 -25 -33 -45 -36 -45 -3 0 9 20 26 45 17 25 33 45 36 45
3 0 -9 -20 -26 -45z m4190 29 c0 -8 -4 -12 -10 -9 -5 3 -10 10 -10 16 0 5 5 9
10 9 6 0 10 -7 10 -16z m-2958 -56 c-8 -18 -11 -19 -11 -5 -1 9 -6 17 -12 17
-6 0 -8 -8 -4 -19 3 -11 2 -22 -4 -25 -5 -3 -7 -15 -4 -27 4 -12 0 -25 -8 -30
-21 -13 -35 -11 -21 3 17 17 15 31 -3 24 -28 -11 -16 28 22 66 40 41 66 38 45
-4z m4308 12 c-6 -11 -15 -20 -19 -20 -5 0 -32 -24 -61 -52 l-52 -53 20 40
c12 24 38 52 68 71 59 39 57 39 44 14z m-635 -17 c1 -12 -6 -31 -15 -42 l-16
-22 -24 27 c-14 15 -20 24 -13 21 18 -11 43 3 43 25 0 26 23 18 25 -9z m-260
-13 c3 -6 -1 -7 -9 -4 -18 7 -21 14 -7 14 6 0 13 -4 16 -10z m-1863 -34 c21
13 73 9 73 -6 0 -7 -7 -15 -15 -17 -13 -4 -13 -3 0 6 8 6 10 11 4 11 -6 0 -17
-7 -24 -15 -8 -10 -9 -15 -2 -15 15 0 -22 -62 -51 -86 l-22 -19 19 22 c18 21
17 75 -2 72 -19 -3 -25 2 -12 11 8 5 11 12 7 17 -10 10 -28 -18 -22 -34 2 -7
-6 -20 -19 -28 -13 -9 -26 -25 -29 -36 -3 -12 -10 -18 -16 -15 -6 4 -17 -10
-26 -30 -8 -20 -18 -35 -20 -32 -3 3 10 38 30 79 19 40 35 79 35 86 0 7 9 17
20 23 11 6 18 16 14 22 -4 5 5 2 19 -7 15 -9 32 -13 39 -9z m2312 -36 c-10
-16 -20 -27 -22 -25 -5 5 26 55 34 55 3 0 -3 -13 -12 -30z m-234 0 c0 -5 -2
-10 -4 -10 -3 0 -8 5 -11 10 -3 6 -1 10 4 10 6 0 11 -4 11 -10z m249 -70 c-42
-80 -48 -71 -7 11 18 35 34 61 36 57 2 -4 -11 -35 -29 -68z m-5814 5 c-21 -31
-39 -54 -42 -52 -2 3 13 30 34 60 21 31 39 54 41 52 2 -2 -13 -29 -33 -60z
m3741 23 c-13 -24 -43 -74 -65 -113 -35 -61 -47 -72 -42 -42 0 4 -3 7 -9 7
-20 0 -9 51 16 75 14 13 23 29 19 34 -3 6 -2 11 3 11 6 0 12 10 16 23 4 19 37
38 79 46 4 0 -3 -18 -17 -41z m1974 33 c0 -11 -42 -43 -48 -37 -2 3 1 14 8 25
11 21 40 29 40 12z m-3825 -21 c-19 -21 -35 -26 -35 -12 0 5 10 14 23 20 31
15 32 14 12 -8z m3637 7 c11 -9 14 -18 7 -28 -7 -12 -9 -12 -9 1 -1 25 -20
-11 -20 -37 0 -14 -6 -23 -15 -23 -20 0 -19 24 1 41 10 8 13 21 9 36 -6 26 2
29 27 10z m-2851 -30 c-10 -9 -11 -8 -5 6 3 10 9 15 12 12 3 -3 0 -11 -7 -18z
m-836 -7 c3 -5 1 -10 -4 -10 -6 0 -11 5 -11 10 0 6 2 10 4 10 3 0 8 -4 11 -10z
m3818 -15 c-3 -9 -8 -14 -10 -11 -3 3 -2 9 2 15 9 16 15 13 8 -4z m-3818 -46
c-6 -35 -32 -87 -63 -124 -5 -6 -12 -23 -15 -37 -4 -15 -14 -33 -22 -42 -8 -8
-17 -29 -18 -46 -2 -18 -10 -35 -16 -40 -7 -4 -12 -10 -12 -14 3 -19 0 -26
-10 -26 -16 0 -59 -51 -59 -70 0 -13 -2 -13 -9 -1 -8 12 -14 13 -36 3 -24 -11
-25 -11 -15 8 6 11 16 20 23 20 31 1 59 37 62 81 5 65 5 65 14 51 4 -8 12 -14
17 -14 11 1 23 36 14 42 -4 3 -3 20 2 37 7 25 16 34 41 41 37 10 47 37 21 56
-17 13 -16 14 4 20 12 4 19 13 16 21 -3 7 4 18 15 25 11 6 20 14 20 18 -3 19
2 25 11 12 8 -13 10 -12 10 3 0 9 3 17 6 17 3 0 3 -19 -1 -41z m3886 -2 c-11
-19 -27 -48 -34 -66 -9 -20 -16 -28 -19 -20 -3 8 10 38 29 67 36 56 58 73 24
19z m-3176 1 c6 -20 8 -20 12 -5 5 19 18 22 28 7 3 -5 -3 -18 -13 -28 -10 -10
-24 -32 -31 -50 -7 -17 -17 -29 -22 -26 -5 3 -12 -2 -15 -10 -3 -9 -10 -16
-15 -16 -4 0 -6 7 -3 15 13 34 -13 12 -38 -33 l-27 -47 -1 48 c0 33 4 47 14
47 7 0 13 8 13 18 0 38 3 47 11 35 6 -9 12 -7 25 7 10 12 12 20 5 20 -6 0 -3
9 7 20 24 26 41 25 50 -2z m3080 -9 c-9 -16 -15 -38 -14 -47 2 -9 -5 -32 -14
-50 -10 -18 -15 -37 -12 -42 4 -6 -7 -36 -24 -68 -16 -31 -40 -79 -53 -107
-13 -27 -26 -52 -29 -55 -3 -3 -29 -52 -59 -110 -54 -106 -178 -320 -186 -320
-7 0 33 74 70 133 45 70 166 311 166 328 -1 20 -37 -26 -65 -82 -13 -25 -31
-51 -39 -58 -24 -20 -20 5 4 29 11 11 20 27 20 35 0 8 4 15 8 15 5 0 19 23 32
50 13 28 27 50 31 50 3 0 9 10 12 23 2 12 8 31 12 42 4 12 -1 8 -13 -8 -12
-18 -22 -25 -26 -18 -4 6 -3 11 3 11 6 0 8 6 6 13 -3 6 6 25 20 41 14 16 25
34 26 40 1 6 4 0 8 -13 4 -14 13 -27 20 -29 10 -3 12 1 7 13 -4 11 0 26 12 39
22 26 54 96 44 96 -5 0 -16 -16 -25 -35 -9 -19 -21 -35 -26 -35 -6 0 4 24 21
53 17 28 38 62 45 75 20 34 36 26 18 -9z m-175 -56 c0 -5 -5 -15 -10 -23 -8
-12 -10 -11 -10 8 0 12 5 22 10 22 6 0 10 -3 10 -7z m195 -70 c-4 -10 -8 -30
-10 -44 -2 -15 -18 -51 -36 -80 -39 -66 -38 -63 -44 -57 -5 5 85 198 93 198 2
0 1 -8 -3 -17z m-588 -55 c-3 -8 -6 -5 -6 6 -1 11 2 17 5 13 3 -3 4 -12 1 -19z
m-2242 -58 c-9 -16 -18 -30 -21 -30 -2 0 2 14 11 30 9 17 18 30 21 30 2 0 -2
-13 -11 -30z m-56 -50 c-18 -33 -25 -37 -32 -25 -6 12 -1 23 20 43 15 15 30
26 32 25 1 -1 -7 -20 -20 -43z m-1316 21 c-3 -11 -14 -28 -24 -37 -19 -17 -20
-17 -13 1 7 16 35 55 40 55 1 0 0 -9 -3 -19z m144 -13 c-3 -7 -5 -2 -5 12 0
14 2 19 5 13 2 -7 2 -19 0 -25z m3848 -27 c-3 -12 -11 -21 -16 -21 -5 0 -9 -6
-9 -13 0 -20 -30 -58 -41 -51 -9 5 19 64 32 64 4 0 9 14 13 32 4 23 9 29 17
21 6 -6 8 -20 4 -32z m-1946 -44 c-7 -15 -18 -27 -26 -27 -13 0 -17 -12 -14
-37 1 -7 -3 -13 -9 -13 -6 0 -8 -5 -5 -10 4 -6 -3 -9 -17 -7 -24 4 -33 32 -10
32 6 0 12 5 13 10 2 20 20 45 33 45 17 0 29 27 14 32 -7 3 -8 10 -4 17 7 10
11 10 23 -1 11 -12 12 -20 2 -41z m-776 -27 c-5 -19 -23 -29 -23 -12 0 7 20
32 26 32 1 0 0 -9 -3 -20z m1507 -74 c-30 -49 -37 -46 -9 4 12 22 25 38 27 35
2 -2 -6 -20 -18 -39z m-2620 19 c0 -8 -5 -15 -11 -15 -5 0 -7 -4 -4 -10 3 -5
1 -10 -4 -10 -6 0 -11 -5 -11 -12 0 -6 -11 -26 -25 -44 -14 -18 -25 -40 -25
-50 0 -9 -8 -24 -17 -33 -10 -9 -23 -25 -29 -35 -6 -11 -19 -24 -30 -30 -10
-6 -21 -12 -23 -13 -2 -2 2 -9 9 -18 10 -12 10 -15 -4 -15 -9 0 -21 -12 -27
-27 -14 -34 -24 -14 -13 25 4 15 8 38 9 52 3 38 15 59 31 53 10 -4 14 3 14 21
0 14 5 26 10 26 6 0 15 12 21 28 24 65 35 82 49 79 8 -1 14 -10 12 -20 -6 -33
20 -17 35 23 16 40 33 53 33 25z m3740 -9 c0 -8 -9 -24 -20 -37 l-20 -24 17
38 c18 40 23 45 23 23z m-1950 -81 c-7 -8 -17 -15 -23 -15 -6 0 -2 7 9 15 25
19 30 19 14 0z m1930 -26 c-18 -28 -20 -29 -15 -9 8 27 25 53 32 46 2 -2 -6
-19 -17 -37z m-5960 -68 c-5 -11 -15 -23 -22 -27 -7 -5 -8 -2 -3 7 21 37 44
55 25 20z m630 15 c0 -2 -8 -10 -17 -17 -16 -13 -17 -12 -4 4 13 16 21 21 21
13z m-557 -54 c-4 -9 -20 -35 -37 -57 -17 -21 -31 -44 -31 -50 -1 -5 -7 -9
-14 -7 -7 1 -21 -8 -33 -20 -19 -22 -18 -21 1 9 12 17 21 36 21 42 0 6 6 11
13 11 13 1 67 73 67 91 0 5 4 8 10 4 5 -3 6 -13 3 -23z m3879 6 c-7 -7 -12 -8
-12 -2 0 14 12 26 19 19 2 -3 -1 -11 -7 -17z m3518 -50 c-10 -23 -17 -45 -15
-48 2 -3 -5 -17 -15 -30 l-19 -25 8 35 c12 49 22 72 39 93 23 26 23 21 2 -25z
m-3581 1 c-7 -13 -6 -19 1 -19 6 0 8 -5 5 -11 -5 -7 -14 -4 -26 7 -26 23 -24
39 6 40 21 2 23 -1 14 -17z m-3940 -25 c16 10 7 -30 -11 -53 -21 -28 -106
-103 -94 -83 14 23 -4 12 -35 -20 -26 -29 -29 -30 -18 -8 7 14 20 32 29 40 9
8 19 23 23 33 5 12 13 16 25 13 27 -9 59 28 42 49 -10 12 -9 20 6 42 18 28 19
28 22 5 2 -12 7 -20 11 -18z m5908 4 c-3 -8 -6 -5 -6 6 -1 11 2 17 5 13 3 -3
4 -12 1 -19z m-1982 -45 c-10 -7 -22 -10 -26 -7 -5 3 -9 -2 -9 -11 0 -19 -27
-65 -49 -83 -9 -7 -16 -16 -16 -20 0 -4 -11 -25 -24 -47 -14 -22 -32 -53 -41
-69 -16 -28 -50 -45 -50 -24 0 6 7 7 16 4 12 -5 15 -2 10 9 -3 9 -2 14 3 11 4
-3 13 6 19 19 7 14 8 25 3 25 -5 0 -12 -6 -14 -12 -3 -8 -6 -8 -6 -2 -1 6 12
23 29 37 16 15 27 32 25 39 -3 7 5 18 17 23 16 7 23 18 23 36 0 16 4 25 11 22
7 -3 10 4 7 20 -3 15 3 32 18 49 22 24 24 25 47 10 23 -15 23 -17 7 -29z
m1934 -38 c-23 -36 -43 -65 -45 -65 -2 0 9 27 26 59 25 50 35 62 57 70 1 1
-16 -28 -38 -64z m-5984 5 c3 -5 -3 -10 -15 -10 -12 0 -18 5 -15 10 3 6 10 10
15 10 5 0 12 -4 15 -10z m2185 1 c0 -5 -7 -11 -15 -15 -15 -5 -20 5 -8 17 9
10 23 9 23 -2z m-23 -32 c9 -3 3 -18 -17 -48 -16 -25 -27 -48 -25 -52 3 -4 -1
-11 -8 -17 -10 -8 -12 -2 -9 29 3 26 11 43 23 50 23 12 25 37 4 45 -8 4 -12
10 -9 16 3 5 11 3 17 -5 7 -8 18 -16 24 -18z m5438 2 c-3 -6 -11 -11 -17 -11
-6 0 -6 6 2 15 14 17 26 13 15 -4z m-7622 -15 c-10 -13 -20 -22 -22 -20 -4 4
29 44 36 44 2 0 -4 -11 -14 -24z m372 -45 c-3 -6 -11 -11 -17 -11 -6 0 -6 6 2
15 14 17 26 13 15 -4z m7215 -4 c0 -7 -7 -22 -15 -33 -13 -17 -14 -16 -4 14
11 33 19 41 19 19z m-7435 -47 c-10 -11 -21 -17 -24 -14 -3 3 3 12 13 20 28
20 32 17 11 -6z m185 11 c0 -5 -7 -12 -16 -15 -14 -5 -15 -4 -4 9 14 17 20 19
20 6z m-227 -61 c-3 -11 -8 -20 -12 -20 -10 0 -83 -73 -90 -90 -9 -23 -108
-112 -114 -103 -6 10 108 133 123 133 5 0 10 6 10 13 0 9 75 85 87 87 0 0 -1
-9 -4 -20z m417 -3 c0 -2 -12 -14 -27 -28 l-28 -24 24 28 c23 25 31 32 31 24z
m-50 -60 c0 -2 -15 -16 -32 -33 l-33 -29 29 33 c28 30 36 37 36 29z m1550 -42
c0 -8 -4 -15 -10 -15 -5 0 -10 7 -10 15 0 8 5 15 10 15 6 0 10 -7 10 -15z
m1113 -230 c-3 -9 -8 -14 -10 -11 -3 3 -2 9 2 15 9 16 15 13 8 -4z m-3243 -35
c0 -5 -5 -10 -11 -10 -5 0 -7 5 -4 10 3 6 8 10 11 10 2 0 4 -4 4 -10z m1421
-37 c-12 -20 -14 -14 -5 12 4 9 9 14 11 11 3 -2 0 -13 -6 -23z m508 -17 c-9
-8 -10 -7 -5 7 3 10 7 24 7 30 1 7 3 4 6 -7 3 -10 -1 -23 -8 -30z m-610 -17
c-6 -3 -11 -10 -11 -15 -1 -19 -14 -43 -23 -43 -5 0 -15 -16 -21 -37 -6 -22
-13 -33 -18 -26 -4 6 10 43 31 81 22 40 41 64 45 58 4 -6 2 -14 -3 -18z m62
-52 c-17 -30 -31 -60 -31 -67 0 -21 -32 -80 -40 -75 -5 3 -32 -29 -61 -70 -28
-41 -53 -75 -55 -75 -11 0 7 64 28 101 91 161 94 165 102 147 5 -10 7 -10 12
0 3 7 12 19 20 26 8 8 14 18 14 23 0 13 31 55 37 49 3 -3 -9 -29 -26 -59z
m467 -75 c15 12 16 11 3 -4 -14 -19 -32 -15 -30 5 0 8 2 8 6 -1 4 -10 8 -10
21 0z m1246 -39 c-3 -10 -14 -29 -25 -43 l-20 -25 13 30 c19 47 41 73 32 38z
m-1284 -22 c0 -4 -9 -18 -20 -31 -11 -13 -20 -34 -20 -47 0 -15 -4 -22 -11
-18 -13 8 -38 -23 -39 -47 0 -10 -4 -18 -8 -18 -9 0 -47 -62 -44 -72 1 -5 -2
-8 -7 -8 -5 0 -11 -10 -14 -22 -4 -12 -9 -19 -13 -15 -4 4 -14 -1 -22 -11 -10
-12 -9 -8 2 10 9 15 16 33 16 40 0 7 17 36 38 63 21 28 50 71 65 98 15 26 32
47 37 47 5 0 12 11 16 25 5 22 24 27 24 6z m1233 -66 c-3 -9 -8 -14 -10 -11
-3 3 -2 9 2 15 9 16 15 13 8 -4z m-1419 -67 c7 -5 6 -8 -3 -8 -8 0 -25 -10
-38 -22 -22 -21 -24 -21 -17 -3 15 39 38 69 43 54 2 -8 9 -17 15 -21z m1374
-23 c-6 -14 -15 -25 -20 -25 -9 0 -4 14 15 38 15 19 18 14 5 -13z m3568 -52
c-29 -56 -66 -112 -66 -100 0 10 80 147 86 147 3 0 -7 -21 -20 -47z m-5376
-32 c-8 -19 -17 -28 -26 -24 -12 5 -11 9 5 25 12 10 21 24 21 30 0 6 3 8 6 5
4 -4 1 -20 -6 -36z m30 -15 c-9 -24 -75 -131 -68 -111 2 6 18 38 36 73 33 63
49 82 32 38z m380 -73 c0 -12 -3 -13 -13 -4 -8 6 -18 7 -23 3 -4 -4 -2 1 5 10
15 20 31 15 31 -9z m-65 -85 c-14 -16 -25 -33 -25 -37 0 -4 -10 -18 -22 -31
-14 -15 -18 -25 -11 -27 17 -6 -5 -51 -28 -58 -9 -3 -20 -17 -23 -30 -4 -14
-10 -25 -15 -25 -11 0 -57 -72 -53 -82 1 -5 -3 -8 -8 -8 -5 0 -10 -12 -10 -26
0 -15 -4 -23 -11 -19 -5 4 -19 -1 -30 -11 -19 -17 -20 -17 -13 2 12 30 56 94
65 94 5 0 9 9 9 19 0 29 11 51 24 51 7 0 22 18 34 41 20 37 20 41 5 35 -10 -3
-7 2 7 12 39 27 70 63 94 111 9 17 21 29 27 26 5 -4 -1 -19 -16 -37z m-404 -5
c-12 -20 -14 -14 -5 12 4 9 9 14 11 11 3 -2 0 -13 -6 -23z m122 -10 c-9 -26
-64 -123 -69 -123 -2 0 12 32 32 70 36 68 50 88 37 53z m5105 -55 c-12 -24
-22 -51 -23 -60 -2 -21 -15 -37 -15 -19 0 7 -5 9 -10 6 -9 -6 10 33 47 93 23
38 24 24 1 -20z m-4978 -8 c-6 -11 -13 -20 -16 -20 -2 0 0 9 6 20 6 11 13 20
16 20 2 0 0 -9 -6 -20z m5000 -40 c0 -5 -5 -10 -11 -10 -5 0 -7 5 -4 10 3 6 8
10 11 10 2 0 4 -4 4 -10z m-5073 -72 c-12 -25 -33 -53 -47 -63 -25 -18 -25
-18 -9 1 9 10 28 41 43 67 34 60 44 57 13 -5z m4977 0 c-25 -41 -54 -80 -54
-72 0 9 51 84 57 84 2 0 1 -6 -3 -12z m-5060 -38 c-22 -36 -51 -52 -33 -17 16
31 30 47 41 47 5 0 1 -13 -8 -30z m551 -4 c-2 -14 -13 -35 -24 -47 -12 -13
-21 -28 -21 -35 0 -14 -28 -39 -36 -32 -7 8 36 88 47 88 5 0 9 6 9 13 0 10 18
37 26 37 1 0 0 -11 -1 -24z m-764 -9 c-10 -9 -11 -8 -5 6 3 10 9 15 12 12 3
-3 0 -11 -7 -18z m5209 -62 c0 -8 -4 -15 -10 -15 -5 0 -7 7 -4 15 4 8 8 15 10
15 2 0 4 -7 4 -15z m-50 -97 c-18 -35 -44 -74 -58 -88 l-25 -25 13 25 c32 63
93 160 98 156 2 -3 -10 -33 -28 -68z m-4980 38 c0 -2 -8 -10 -17 -17 -16 -13
-17 -12 -4 4 13 16 21 21 21 13z m495 -6 c3 -5 -1 -10 -10 -10 -9 0 -15 -6
-14 -12 4 -24 -13 -68 -31 -81 -10 -7 -24 -28 -32 -46 -13 -32 -15 -33 -31
-17 -9 10 -17 22 -17 27 0 9 42 59 73 87 11 10 23 27 28 40 9 23 24 29 34 12z
m3240 -90 c-9 -16 -18 -30 -21 -30 -2 0 2 14 11 30 9 17 18 30 21 30 2 0 -2
-13 -11 -30z m-35 -65 c-7 -8 -9 -15 -4 -15 5 0 4 -4 -2 -8 -11 -8 -154 -259
-154 -272 0 -4 -9 -19 -20 -33 -11 -13 -35 -53 -54 -88 -18 -35 -58 -103 -87
-151 -30 -48 -70 -113 -89 -145 -80 -132 -210 -339 -220 -350 -5 -7 -10 -14
-10 -17 0 -8 -64 -100 -75 -108 -7 -5 -7 -8 0 -8 6 0 3 -6 -6 -13 -9 -7 -29
-36 -44 -64 -32 -59 -81 -120 -90 -111 -3 3 26 52 66 109 184 267 468 728 709
1151 46 81 86 145 88 143 3 -2 -1 -11 -8 -20z m-2689 -12 c-12 -20 -14 -14 -5
12 4 9 9 14 11 11 3 -2 0 -13 -6 -23z m3860 -34 c-17 -23 -31 -39 -31 -35 0
11 53 87 57 82 3 -2 -9 -23 -26 -47z m-4896 11 c-3 -5 -1 -10 5 -10 7 0 5 -7
-4 -16 -9 -8 -13 -20 -10 -26 4 -6 2 -8 -4 -4 -6 3 -23 -10 -39 -31 -15 -21
-31 -39 -35 -41 -5 -2 -8 -8 -8 -13 0 -14 -40 -51 -51 -47 -5 2 13 29 41 60
27 31 50 60 50 64 0 12 44 74 53 74 5 0 5 -4 2 -10z m4845 -92 c-13 -13 -19
-16 -15 -8 14 25 28 41 32 36 3 -3 -5 -15 -17 -28z m753 5 c-4 -10 -11 -22
-15 -28 -4 -5 -17 -21 -28 -35 -10 -14 -19 -20 -20 -14 0 9 60 94 67 94 1 0
-1 -8 -4 -17z m177 -83 c-12 -16 -24 -30 -26 -30 -3 0 4 14 16 30 12 17 24 30
26 30 3 0 -4 -13 -16 -30z m-5770 -35 c0 -2 -7 -5 -15 -9 -9 -3 -15 0 -15 9 0
9 6 12 15 9 8 -4 15 -7 15 -9z m2295 -5 c-3 -5 -11 -10 -16 -10 -6 0 -7 5 -4
10 3 6 11 10 16 10 6 0 7 -4 4 -10z m3445 -4 c0 -2 -8 -10 -17 -17 -16 -13
-17 -12 -4 4 13 16 21 21 21 13z m-5050 -36 c-6 -11 -13 -20 -16 -20 -2 0 0 9
6 20 6 11 13 20 16 20 2 0 0 -9 -6 -20z m223 -89 c-21 -38 -39 -68 -41 -66 -5
4 68 135 74 135 3 0 -12 -31 -33 -69z m-960 44 c-3 -9 -8 -14 -10 -11 -3 3 -2
9 2 15 9 16 15 13 8 -4z m337 6 c0 -6 -4 -13 -10 -16 -5 -3 -10 1 -10 9 0 9 5
16 10 16 6 0 10 -4 10 -9z m710 -24 c0 -13 -16 -41 -35 -63 l-35 -39 32 62
c18 35 34 63 36 63 1 0 2 -11 2 -23z m-1012 -65 c-7 -18 -18 -32 -26 -32 -8 0
-10 5 -5 13 41 64 50 70 31 19z m623 -9 c-49 -85 -96 -153 -104 -153 -4 0 3
15 16 33 13 17 32 51 42 74 10 23 21 40 25 38 5 -3 13 9 19 25 5 17 15 30 20
30 6 0 -2 -21 -18 -47z m747 -38 c-6 -14 -13 -23 -15 -21 -5 5 15 46 22 46 3
0 -1 -11 -7 -25z m807 15 c3 -5 1 -10 -4 -10 -6 0 -11 5 -11 10 0 6 2 10 4 10
3 0 8 -4 11 -10z m-1505 -80 c-6 -11 -13 -20 -16 -20 -2 0 0 9 6 20 6 11 13
20 16 20 2 0 0 -9 -6 -20z m692 -22 c-8 -8 -9 -4 -5 13 4 13 8 18 11 10 2 -7
-1 -18 -6 -23z m964 -47 c-15 -28 -28 -51 -31 -51 -3 0 7 25 22 55 15 30 29
53 31 51 2 -2 -8 -27 -22 -55z m-1743 24 c-3 -9 -8 -14 -10 -11 -3 3 -2 9 2
15 9 16 15 13 8 -4z m4287 5 c0 -5 -2 -10 -4 -10 -3 0 -8 5 -11 10 -3 6 -1 10
4 10 6 0 11 -4 11 -10z m-26 -29 c-5 -3 -10 -13 -12 -21 -2 -8 -12 -24 -23
-36 -10 -11 -19 -25 -19 -31 0 -13 -39 -48 -46 -41 -3 3 9 25 26 49 17 24 39
56 48 71 9 14 20 24 25 21 5 -3 5 -8 1 -12z m-4388 -17 c-7 -28 -82 -111 -91
-102 -8 8 6 38 16 38 14 0 42 31 58 63 18 34 25 35 17 1z m45 3 c-10 -9 -11
-8 -5 6 3 10 9 15 12 12 3 -3 0 -11 -7 -18z m119 -7 c-6 -11 -13 -20 -16 -20
-2 0 0 9 6 20 6 11 13 20 16 20 2 0 0 -9 -6 -20z m742 -59 c-26 -36 -35 -68
-22 -76 8 -5 4 -15 -11 -31 -17 -19 -21 -30 -16 -61 4 -21 4 -48 1 -60 -6 -21
-7 -21 -40 11 -19 18 -34 37 -34 42 1 5 23 45 50 89 28 44 58 95 67 114 14 25
19 29 21 16 2 -10 -5 -29 -16 -44z m3278 33 c0 -8 -5 -12 -10 -9 -6 4 -8 11
-5 16 9 14 15 11 15 -7z m-4088 -31 c-6 -10 -29 -56 -51 -103 -23 -47 -53 -98
-67 -115 -16 -18 -22 -22 -15 -9 5 11 7 31 4 44 -5 18 -3 22 10 17 17 -6 31
18 20 35 -3 7 -1 8 5 4 7 -4 12 -1 12 8 0 9 4 16 10 16 5 0 17 16 25 36 18 44
18 47 3 38 -7 -4 -8 -3 -4 5 4 6 13 8 19 4 7 -4 5 2 -3 12 -14 17 -13 18 3 12
11 -4 20 -1 24 9 3 8 7 13 10 10 2 -2 0 -12 -5 -23z m28 -13 c-6 -11 -13 -20
-16 -20 -2 0 0 9 6 20 6 11 13 20 16 20 2 0 0 -9 -6 -20z m1690 -30 c-11 -22
-23 -40 -25 -40 -3 0 4 18 15 40 11 22 23 40 25 40 3 0 -4 -18 -15 -40z m2300
33 c0 -5 -10 -19 -21 -33 l-21 -25 18 33 c18 32 24 38 24 25z m-4034 -80 c-13
-27 -32 -57 -41 -68 -9 -11 -6 0 8 25 13 25 30 55 36 68 6 12 14 22 17 22 2 0
-7 -21 -20 -47z m1524 -7 c-20 -34 -38 -104 -20 -74 6 11 17 15 28 11 14 -5
15 -3 5 8 -20 21 -15 31 10 18 12 -7 24 -13 27 -13 2 -1 3 -13 1 -28 -1 -14 3
-29 9 -33 5 -3 7 -11 4 -17 -4 -6 -1 -13 5 -17 8 -5 5 -13 -9 -26 -17 -15 -20
-16 -20 -2 0 8 4 17 10 19 6 2 5 9 -1 18 -9 13 -11 13 -16 0 -11 -28 -193
-385 -210 -412 -12 -19 -14 -31 -7 -38 18 -18 38 -2 90 78 103 154 140 218
153 262 13 41 15 43 21 20 6 -25 7 -24 38 19 17 23 34 51 37 61 3 10 17 20 30
23 35 6 33 -21 -5 -63 -17 -19 -38 -51 -48 -72 -9 -20 -23 -38 -29 -38 -8 0
-13 -14 -13 -34 0 -27 -3 -33 -17 -30 -24 6 -29 1 -91 -80 -32 -42 -52 -79
-52 -95 0 -15 -8 -31 -20 -39 -11 -7 -20 -18 -20 -26 0 -7 -7 -19 -15 -26 -17
-14 -21 -35 -5 -25 15 9 12 -4 -5 -21 -8 -9 -15 -24 -15 -35 0 -11 -4 -18 -9
-14 -5 3 -16 -1 -24 -9 -8 -8 -17 -12 -21 -9 -7 7 -8 2 -10 -39 -1 -15 -6 -31
-10 -35 -5 -5 -6 -2 -1 6 6 11 3 13 -17 8 -20 -5 -27 -2 -36 18 -10 22 -9 25
13 31 14 3 23 10 20 14 -3 5 -2 10 2 13 5 2 3 2 -4 1 -7 -2 -15 2 -19 7 -3 6
-14 9 -24 6 -14 -3 -16 1 -14 24 3 21 -2 29 -16 34 -11 4 -20 11 -20 17 0 5 7
8 15 4 18 -7 20 15 3 33 -10 11 -10 13 0 7 6 -4 12 -2 12 4 0 8 6 8 21 -1 19
-10 20 -9 14 11 -4 14 -3 20 3 16 5 -3 12 2 16 12 18 54 45 105 45 87 1 -13 8
-21 21 -22 20 -2 26 19 21 75 -1 15 2 21 8 17 6 -3 11 2 12 12 0 16 1 16 8 -1
7 -18 8 -18 14 -3 3 9 13 17 20 17 10 0 13 11 11 36 -3 41 -23 71 -25 39 -2
-26 -2 -27 6 -45 4 -11 -1 -16 -17 -17 -13 -1 -18 1 -13 5 6 4 10 23 9 42 0
19 5 44 12 55 12 18 21 57 23 95 1 12 4 11 19 -3 15 -16 15 -19 2 -28 -11 -8
-12 -12 -2 -16 6 -2 10 -9 6 -14 -3 -5 0 -9 6 -9 7 0 9 8 5 19 -4 13 0 23 10
29 14 7 15 11 3 23 -29 31 -13 142 19 132 7 -3 15 8 18 24 12 54 15 59 24 44
6 -8 2 -26 -9 -45z m-1583 12 c-3 -8 -6 -5 -6 6 -1 11 2 17 5 13 3 -3 4 -12 1
-19z m4263 1 c0 -5 -7 -9 -17 -9 -9 0 -13 -3 -10 -6 7 -8 -19 -59 -47 -91 -10
-12 -24 -32 -30 -44 -13 -25 -29 -27 -32 -3 -3 19 56 113 71 113 6 1 19 15 29
31 16 28 36 33 36 9z m-3585 -38 c-8 -17 -20 -33 -26 -37 -11 -7 5 29 24 54
17 21 18 13 2 -17z m-529 -29 c-18 -16 -18 -16 -6 6 6 13 14 21 18 18 3 -4 -2
-14 -12 -24z m1579 8 c-3 -5 -12 -10 -18 -10 -7 0 -6 4 3 10 19 12 23 12 15 0z
m2227 -20 c-9 -16 -19 -25 -21 -19 -3 9 26 49 35 49 2 0 -5 -13 -14 -30z
m-3472 10 c0 -5 -5 -10 -11 -10 -5 0 -7 5 -4 10 3 6 8 10 11 10 2 0 4 -4 4
-10z m1354 -35 c-10 -16 -20 -23 -22 -16 -4 12 28 55 35 47 3 -2 -3 -17 -13
-31z m-1969 15 c3 -5 1 -10 -4 -10 -6 0 -11 5 -11 10 0 6 2 10 4 10 3 0 8 -4
11 -10z m295 -40 c0 -5 -5 -10 -11 -10 -5 0 -8 -4 -5 -8 7 -11 -4 -24 -37 -46
-32 -20 -29 -10 13 42 26 32 40 40 40 22z m3744 -7 c-9 -10 -23 -32 -31 -50
-7 -18 -17 -33 -22 -33 -6 0 -12 -8 -16 -17 -3 -10 -24 -38 -46 -63 -46 -51
-43 -41 14 45 57 84 97 135 109 135 5 0 2 -8 -8 -17z m-3816 -23 c-7 -10 -14
-17 -17 -15 -4 4 18 35 25 35 2 0 -1 -9 -8 -20z m899 -22 c-3 -8 -6 -5 -6 6
-1 11 2 17 5 13 3 -3 4 -12 1 -19z m1257 10 c-5 -7 -2 -9 9 -5 11 4 14 2 10
-9 -3 -8 -12 -13 -21 -12 -8 2 -17 -3 -20 -11 -3 -9 0 -11 8 -6 9 5 11 4 6 -4
-4 -6 -12 -8 -18 -5 -6 4 -8 -1 -4 -14 5 -14 0 -27 -13 -39 -11 -10 -27 -34
-35 -53 -14 -34 -41 -63 -63 -67 -16 -3 -10 19 15 54 12 17 22 35 22 40 0 5 9
15 20 23 11 8 20 18 20 23 0 9 61 97 67 97 2 0 1 -5 -3 -12z m-1522 -20 c-7
-7 -12 -8 -12 -2 0 6 3 14 7 17 3 4 9 5 12 2 2 -3 -1 -11 -7 -17z m1192 -62
c-3 -9 -10 -16 -15 -16 -5 0 -4 9 3 20 14 22 21 20 12 -4z m-1496 -36 c-15
-24 -22 -19 -13 9 3 12 11 19 16 16 5 -4 3 -14 -3 -25z m999 -12 c-3 -7 -5 -2
-5 12 0 14 2 19 5 13 2 -7 2 -19 0 -25z m479 -16 c2 -21 -3 -35 -18 -48 l-21
-19 18 28 c9 15 14 27 11 27 -19 0 -66 -32 -66 -45 0 -8 -5 -15 -11 -15 -5 0
-15 -14 -21 -31 -6 -16 -13 -28 -15 -25 -13 12 -33 -25 -27 -49 4 -14 2 -25
-4 -25 -6 0 -18 -3 -28 -7 -15 -5 -16 -2 -11 27 4 18 18 43 32 56 14 13 25 32
25 44 0 11 8 24 18 27 21 8 53 39 77 76 21 32 36 25 41 -21z m-480 -39 c-11
-11 -17 4 -9 23 7 18 8 18 11 1 2 -10 1 -21 -2 -24z m1189 -13 c3 -5 1 -10 -4
-10 -6 0 -11 5 -11 10 0 6 2 10 4 10 3 0 8 -4 11 -10z m1089 -78 c-84 -126
-109 -162 -127 -185 -18 -21 -18 -21 0 9 65 110 159 251 165 247 4 -2 -13 -34
-38 -71z m-3369 29 c3 -5 1 -12 -5 -16 -5 -3 -10 1 -10 9 0 18 6 21 15 7z
m1371 -68 c-10 -10 -19 5 -10 18 6 11 8 11 12 0 2 -7 1 -15 -2 -18z m-19 -30
c5 3 9 -2 10 -12 2 -19 -40 -73 -54 -71 -4 1 -10 -7 -11 -17 -2 -10 -13 -28
-25 -40 -11 -13 -21 -33 -22 -45 -1 -13 -8 -22 -15 -20 -8 2 -10 -3 -6 -14 4
-12 2 -15 -9 -10 -8 3 -15 1 -15 -4 0 -6 -7 -10 -15 -10 -8 0 -14 -4 -12 -10
2 -10 -62 -70 -75 -70 -5 0 -8 7 -8 15 0 8 -5 15 -11 15 -6 0 0 13 13 29 13
17 32 28 43 28 14 -2 19 3 17 15 -4 23 69 120 85 114 7 -3 15 -1 18 5 4 5 11
7 16 4 5 -4 9 -2 9 4 0 5 -7 11 -15 13 -10 2 -12 7 -5 18 9 13 11 13 20 0 8
-13 10 -12 10 3 0 10 8 17 20 17 17 0 19 5 15 33 -4 21 -2 27 4 18 5 -7 13
-11 18 -8z m2284 -10 c-8 -15 -10 -15 -11 -2 0 17 10 32 18 25 2 -3 -1 -13 -7
-23z m-373 -142 c-18 -27 -35 -48 -36 -46 -5 4 57 95 64 95 2 0 -10 -22 -28
-49z m-2111 7 c2 -18 0 -20 -7 -8 -12 18 -13 30 -2 30 4 0 9 -10 9 -22z m2159
-35 c-4 -16 -15 -34 -26 -41 -19 -11 -19 -10 2 33 24 49 33 52 24 8z m-85
-120 c-5 -10 -14 -30 -22 -45 -7 -16 -18 -28 -26 -28 -19 0 -16 8 18 51 33 42
45 50 30 22z m-2021 -63 c0 -5 -5 -10 -11 -10 -5 0 -7 5 -4 10 3 6 8 10 11 10
2 0 4 -4 4 -10z m-615 -30 c3 -5 -1 -10 -10 -10 -9 0 -13 5 -10 10 3 6 8 10
10 10 2 0 7 -4 10 -10z m525 -6 c0 -7 -33 -34 -40 -34 -6 0 -7 33 -1 35 4 2
41 0 41 -1z m2001 -47 c-10 -9 -11 -8 -5 6 3 10 9 15 12 12 3 -3 0 -11 -7 -18z
m-2062 -79 c-13 -18 -25 -26 -27 -19 -2 6 6 21 19 31 31 28 34 25 8 -12z m751
12 c0 -11 -4 -20 -8 -20 -9 0 -45 -59 -49 -79 -1 -8 10 -2 24 15 22 25 22 24
-3 -11 -15 -22 -32 -41 -36 -43 -4 -2 -8 -9 -8 -16 0 -7 -9 -21 -21 -32 -13
-12 -18 -26 -15 -40 4 -13 0 -27 -9 -34 -17 -14 -25 -10 -29 16 -2 10 -9 20
-16 22 -8 3 -11 -1 -8 -10 4 -9 -1 -14 -13 -15 -15 -1 -16 1 -7 16 6 10 20 24
31 30 10 7 16 8 13 3 -3 -6 1 -12 9 -15 12 -5 12 -2 3 18 -8 19 -7 27 6 40 14
15 16 15 16 1 0 -9 5 -16 11 -16 6 0 9 6 6 14 -3 8 -1 17 6 20 9 3 8 8 -3 16
-13 10 -13 11 3 6 15 -5 21 4 19 25 -1 4 8 15 18 24 11 10 20 24 20 30 0 7 7
15 15 19 8 3 15 10 15 16 0 6 -5 8 -12 4 -7 -4 -8 -3 -4 4 11 19 26 14 26 -8z
m-350 -29 c0 -11 -4 -23 -10 -26 -6 -4 -10 5 -10 19 0 14 5 26 10 26 6 0 10
-9 10 -19z m647 -18 c2 -6 -1 -15 -8 -19 -8 -5 -9 -3 -4 6 5 8 3 11 -6 8 -8
-3 -13 -15 -11 -28 3 -16 0 -20 -10 -15 -10 6 -10 5 -2 -4 9 -10 17 -9 38 4
14 10 26 21 26 25 0 12 28 20 45 14 11 -5 12 -9 2 -19 -9 -10 -15 -10 -26 -2
-11 10 -13 8 -7 -11 5 -15 2 -27 -8 -38 -17 -16 -12 -39 6 -28 5 4 2 -5 -7
-20 -26 -39 -13 -41 23 -5 l30 31 -21 -44 c-12 -24 -28 -58 -34 -74 -12 -28
-53 -46 -53 -22 0 6 -7 5 -17 -3 -15 -12 -16 -12 -10 3 4 13 2 15 -10 11 -12
-5 -14 -3 -8 7 5 9 4 11 -4 6 -6 -4 -8 -12 -5 -18 5 -8 -3 -9 -24 -5 -18 4
-32 3 -32 -1 0 -15 22 -30 36 -25 9 3 14 -2 14 -12 0 -14 3 -15 15 -5 8 7 15
9 15 4 -1 -15 -26 -44 -39 -44 -6 0 -11 -6 -11 -14 0 -8 -6 -14 -12 -13 -7 0
-24 -1 -38 -2 -20 -1 -22 -3 -10 -11 13 -8 13 -11 1 -22 -10 -10 -12 -10 -7 0
4 6 2 12 -4 12 -6 0 -15 -11 -20 -25 -5 -14 -14 -25 -20 -25 -6 0 -8 5 -3 13
4 6 -5 4 -20 -5 -14 -10 -38 -18 -52 -18 -14 0 -25 -5 -25 -12 0 -6 -3 -8 -7
-4 -5 4 -1 13 8 19 21 16 51 75 44 87 -3 6 -1 10 6 10 9 0 9 3 0 14 -9 11 -7
15 9 19 14 3 18 10 14 21 -4 11 -14 15 -28 11 -11 -2 -15 -2 -7 1 11 5 11 8 0
16 -10 6 -5 8 16 7 50 -4 75 9 75 39 -1 22 -2 24 -10 10 -6 -9 -18 -15 -28
-14 -9 2 -20 -2 -24 -8 -5 -7 -8 -5 -8 5 0 8 7 24 15 35 13 18 14 18 8 -6 -5
-24 -4 -23 31 10 21 19 34 28 31 19 -3 -9 2 -22 12 -30 16 -13 17 -12 4 4 -8
9 -11 20 -8 24 4 3 2 14 -4 24 -5 11 -6 18 -1 17 5 -2 29 18 54 45 24 26 43
47 41 47 -2 0 5 8 15 18 18 19 54 22 59 5z m-689 -43 c-14 -22 -24 -19 -15 5
4 8 11 15 17 15 6 0 6 -7 -2 -20z m542 5 c-7 -9 -15 -13 -17 -11 -7 7 7 26 19
26 6 0 6 -6 -2 -15z m-856 -10 c-4 -8 -10 -12 -15 -9 -11 6 -2 24 11 24 5 0 7
-7 4 -15z m1159 -10 c-3 -9 -8 -14 -10 -11 -3 3 -2 9 2 15 9 16 15 13 8 -4z
m-1170 -34 c-4 -3 -13 -15 -19 -26 -13 -23 -28 -23 -32 -1 -3 12 2 14 14 9 11
-4 15 -3 11 4 -4 6 -4 18 -1 27 5 13 9 14 21 5 8 -7 10 -15 6 -18z m792 -16
c-14 -21 -25 -42 -25 -47 0 -14 -51 -78 -62 -78 -6 0 -7 11 -3 27 5 23 4 25
-8 14 -29 -23 -26 6 5 50 16 24 28 36 25 27 -11 -32 10 -27 48 12 21 22 40 38
42 36 2 -2 -7 -21 -22 -41z m20 -25 c-3 -5 -11 -10 -16 -10 -6 0 -7 5 -4 10 3
6 11 10 16 10 6 0 7 -4 4 -10z m288 -67 c-7 -2 -13 -12 -13 -22 0 -9 -9 -24
-20 -34 -25 -21 -25 -11 0 31 11 17 25 32 32 31 10 0 10 -2 1 -6z m-423 -27
c0 -3 -4 -8 -10 -11 -5 -3 -10 -1 -10 4 0 6 5 11 10 11 6 0 10 -2 10 -4z m-55
-45 c-3 -5 0 -13 6 -17 6 -3 15 0 20 7 5 8 9 10 9 4 -1 -5 -7 -19 -15 -29 -17
-22 -20 -40 -6 -32 5 3 14 -1 21 -9 8 -9 8 -15 2 -15 -6 0 -12 5 -14 12 -3 8
-12 4 -26 -10 -26 -26 -27 -22 -6 19 18 36 11 52 -11 23 -14 -19 -14 -19 -15
0 0 11 7 28 17 38 17 19 28 24 18 9z m355 -30 c0 -5 -7 -12 -16 -15 -14 -5
-15 -4 -4 9 14 17 20 19 20 6z m-306 -16 c-4 -8 -8 -15 -10 -15 -2 0 -4 7 -4
15 0 8 4 15 10 15 5 0 7 -7 4 -15z m356 -19 c0 -8 -4 -18 -10 -21 -5 -3 -10 3
-10 14 0 12 5 21 10 21 6 0 10 -6 10 -14z m-487 -31 c-3 -9 -8 -14 -10 -11 -3
3 -2 9 2 15 9 16 15 13 8 -4z m36 -16 c-8 -4 -15 -12 -15 -16 -8 -47 -19 -57
-56 -54 -10 1 -18 -3 -18 -8 0 -6 -4 -11 -9 -11 -5 0 -8 8 -7 18 2 9 12 17 22
17 10 0 20 7 20 15 3 32 5 35 13 21 7 -10 14 -6 32 18 13 18 25 27 28 20 2 -6
-3 -15 -10 -20z m332 -47 c-5 -9 -16 -26 -25 -37 -15 -19 -15 -19 -14 10 2 39
3 40 27 42 17 1 19 -2 12 -15z m-284 -81 c-26 -47 -43 -43 -28 7 1 1 1 5 0 10
0 4 10 10 23 14 13 3 24 6 25 7 1 1 -8 -17 -20 -38z m-210 -78 c-9 -9 -19 -14
-23 -11 -10 10 6 28 24 28 15 0 15 -1 -1 -17z m43 -43 c-8 -5 -17 -7 -19 -4
-3 3 1 9 9 14 8 5 17 7 19 4 3 -3 -1 -9 -9 -14z m25 -20 c3 -5 -1 -10 -10 -10
-9 0 -13 5 -10 10 3 6 8 10 10 10 2 0 7 -4 10 -10z m7 -45 c-5 -29 -19 -42
-17 -17 1 17 13 42 19 42 2 0 1 -11 -2 -25z"/>
<path d="M6351 6604 c0 -11 3 -14 6 -6 3 7 2 16 -1 19 -3 4 -6 -2 -5 -13z"/>
<path d="M5220 6689 c0 -11 5 -17 10 -14 6 3 10 13 10 21 0 8 -4 14 -10 14 -5
0 -10 -9 -10 -21z"/>
<path d="M3751 6284 c0 -11 3 -14 6 -6 3 7 2 16 -1 19 -3 4 -6 -2 -5 -13z"/>
<path d="M530 5589 c0 -5 5 -7 10 -4 6 3 10 8 10 11 0 2 -4 4 -10 4 -5 0 -10
-5 -10 -11z"/>
<path d="M3470 2940 c0 -5 5 -10 10 -10 6 0 10 5 10 10 0 6 -4 10 -10 10 -5 0
-10 -4 -10 -10z"/>
<path d="M3426 2765 c-3 -8 -1 -15 4 -15 6 0 10 -7 10 -15 0 -8 7 -15 15 -15
18 0 18 1 5 34 -11 29 -25 34 -34 11z"/>
<path d="M3332 2324 c10 -10 20 -15 24 -12 3 4 -5 12 -18 18 -22 12 -22 12 -6
-6z"/>
<path d="M3306 2307 c3 -10 9 -15 12 -12 3 3 0 11 -7 18 -10 9 -11 8 -5 -6z"/>
<path d="M3495 2370 c-3 -5 -1 -10 4 -10 6 0 11 5 11 10 0 6 -2 10 -4 10 -3 0
-8 -4 -11 -10z"/>
<path d="M4300 1865 c-7 -9 -11 -17 -9 -20 3 -2 10 5 17 15 14 24 10 26 -8 5z"/>
<path d="M2365 7580 c-3 -5 -1 -10 4 -10 6 0 11 5 11 10 0 6 -2 10 -4 10 -3 0
-8 -4 -11 -10z"/>
<path d="M2581 7573 c-24 -26 -51 -86 -51 -110 0 -32 18 -29 26 5 13 48 50
108 65 104 11 -3 11 -1 -1 7 -19 14 -22 13 -39 -6z"/>
<path d="M1760 7385 c0 -16 -6 -25 -15 -25 -9 0 -15 -9 -15 -21 0 -11 5 -19
11 -17 6 2 9 6 7 8 -2 3 7 16 20 30 25 27 29 50 7 50 -9 0 -15 -9 -15 -25z"/>
<path d="M7175 7400 c-3 -5 1 -10 9 -10 9 0 16 5 16 10 0 6 -4 10 -9 10 -6 0
-13 -4 -16 -10z"/>
<path d="M1480 7325 c0 -8 5 -15 10 -15 6 0 10 7 10 15 0 8 -4 15 -10 15 -5 0
-10 -7 -10 -15z"/>
<path d="M5640 7330 c0 -5 5 -10 10 -10 6 0 10 5 10 10 0 6 -4 10 -10 10 -5 0
-10 -4 -10 -10z"/>
<path d="M1720 7301 c0 -5 -3 -18 -7 -28 -6 -16 -5 -16 10 -4 19 15 23 41 7
41 -5 0 -10 -4 -10 -9z"/>
<path d="M886 7275 c-3 -8 -1 -15 3 -15 5 0 11 7 15 15 3 8 1 15 -3 15 -5 0
-11 -7 -15 -15z"/>
<path d="M934 7282 c-15 -10 -37 -52 -27 -52 4 0 16 14 25 30 18 32 19 33 2
22z"/>
<path d="M851 7221 c-22 -30 -27 -51 -13 -51 9 0 25 29 36 63 8 25 0 21 -23
-12z"/>
<path d="M6805 7240 c3 -5 8 -10 11 -10 2 0 4 5 4 10 0 6 -5 10 -11 10 -5 0
-7 -4 -4 -10z"/>
<path d="M1680 7199 c0 -5 -4 -8 -9 -5 -7 5 -25 -34 -18 -40 1 -1 14 11 28 27
17 19 22 29 13 29 -8 0 -14 -5 -14 -11z"/>
<path d="M3440 7180 c0 -5 5 -10 10 -10 6 0 10 5 10 10 0 6 -4 10 -10 10 -5 0
-10 -4 -10 -10z"/>
<path d="M1681 7090 c-12 -17 -21 -33 -19 -36 8 -7 50 44 46 56 -2 6 -14 -3
-27 -20z"/>
<path d="M3374 7018 c-3 -4 4 -8 15 -8 12 0 21 4 21 8 0 5 -7 9 -15 9 -9 0
-18 -4 -21 -9z"/>
<path d="M620 6979 c0 -5 5 -7 10 -4 6 3 10 8 10 11 0 2 -4 4 -10 4 -5 0 -10
-5 -10 -11z"/>
<path d="M4088 6953 c-21 -25 -41 -64 -35 -70 3 -3 17 14 32 37 28 44 29 63 3
33z"/>
<path d="M652 6930 c-7 -11 -8 -20 -2 -20 5 0 14 9 20 20 6 11 7 20 3 20 -5 0
-14 -9 -21 -20z"/>
<path d="M7055 6930 c-3 -5 -1 -10 4 -10 6 0 11 5 11 10 0 6 -2 10 -4 10 -3 0
-8 -4 -11 -10z"/>
<path d="M565 6910 c-3 -6 1 -7 9 -4 18 7 21 14 7 14 -6 0 -13 -4 -16 -10z"/>
<path d="M1555 6911 c-3 -5 -1 -12 5 -16 5 -3 10 1 10 9 0 18 -6 21 -15 7z"/>
<path d="M4036 6905 c-3 -9 -10 -14 -15 -10 -12 7 -23 -11 -27 -42 -4 -37 20
-26 38 19 10 23 16 43 14 45 -2 2 -6 -3 -10 -12z"/>
<path d="M540 6870 c-12 -7 -10 -9 7 -7 12 0 19 5 17 9 -6 10 -6 10 -24 -2z"/>
<path d="M1522 6860 c-7 -11 -8 -20 -2 -20 5 0 14 9 20 20 6 11 7 20 3 20 -5
0 -14 -9 -21 -20z"/>
<path d="M600 6850 c0 -5 7 -7 15 -4 8 4 15 8 15 10 0 2 -7 4 -15 4 -8 0 -15
-4 -15 -10z"/>
<path d="M4117 6833 c-31 -51 -97 -186 -93 -190 3 -3 9 3 12 13 4 10 19 37 34
59 40 58 72 125 61 125 -5 0 -12 -3 -14 -7z"/>
<path d="M4670 6820 c0 -5 5 -10 10 -10 6 0 10 5 10 10 0 6 -4 10 -10 10 -5 0
-10 -4 -10 -10z"/>
<path d="M3960 6809 c0 -5 5 -7 10 -4 6 3 10 8 10 11 0 2 -4 4 -10 4 -5 0 -10
-5 -10 -11z"/>
<path d="M459 6773 c-31 -50 -32 -53 -20 -53 18 0 65 70 54 81 -7 7 -18 -2
-34 -28z"/>
<path d="M4277 6788 c-4 -12 -4 -25 -1 -28 8 -7 34 31 28 41 -9 16 -22 10 -27
-13z"/>
<path d="M7090 6720 c0 -5 5 -10 10 -10 6 0 10 5 10 10 0 6 -4 10 -10 10 -5 0
-10 -4 -10 -10z"/>
<path d="M455 6690 c-3 -5 -1 -10 4 -10 6 0 11 5 11 10 0 6 -2 10 -4 10 -3 0
-8 -4 -11 -10z"/>
<path d="M3950 6670 c0 -5 5 -10 11 -10 5 0 7 5 4 10 -3 6 -8 10 -11 10 -2 0
-4 -4 -4 -10z"/>
<path d="M3963 6638 c2 -7 -3 -18 -11 -24 -17 -13 -28 -89 -11 -78 6 3 8 13 5
21 -3 8 -2 11 4 8 5 -3 14 5 21 17 12 22 11 22 -6 8 -17 -13 -18 -13 -10 0 4
8 14 22 22 31 12 14 12 17 -2 23 -11 4 -15 2 -12 -6z"/>
<path d="M3997 6623 c-4 -3 -7 -13 -7 -22 1 -13 3 -13 11 2 11 19 8 33 -4 20z"/>
<path d="M377 6607 c-3 -9 -2 -19 3 -22 12 -7 30 2 30 16 0 6 -4 8 -9 5 -5 -4
-11 -1 -13 6 -3 8 -7 6 -11 -5z"/>
<path d="M4166 6594 c-4 -10 -1 -14 6 -12 15 5 23 28 10 28 -5 0 -13 -7 -16
-16z"/>
<path d="M300 6570 c0 -6 5 -10 11 -10 8 0 8 -4 -1 -14 -8 -11 -9 -20 -1 -33
9 -17 10 -17 9 2 0 11 2 27 6 36 5 10 1 19 -8 22 -9 4 -16 2 -16 -3z"/>
<path d="M4043 6568 c-15 -19 -39 -69 -47 -98 -4 -14 9 4 29 39 33 58 43 90
18 59z"/>
<path d="M4152 6550 c0 -14 2 -19 5 -12 2 6 2 18 0 25 -3 6 -5 1 -5 -13z"/>
<path d="M4290 6560 c0 -5 4 -10 9 -10 6 0 13 5 16 10 3 6 -1 10 -9 10 -9 0
-16 -4 -16 -10z"/>
<path d="M4206 6524 c-10 -14 -16 -28 -13 -30 2 -3 12 7 21 22 10 14 16 28 13
30 -2 3 -12 -7 -21 -22z"/>
<path d="M350 6505 c-11 -13 -10 -14 4 -9 9 3 16 10 16 15 0 13 -6 11 -20 -6z"/>
<path d="M4112 6465 c-18 -40 -14 -47 12 -24 14 12 22 28 19 35 -8 21 -18 17
-31 -11z"/>
<path d="M219 6153 c-13 -16 -12 -17 4 -4 9 7 17 15 17 17 0 8 -8 3 -21 -13z"/>
<path d="M78 5443 c7 -3 16 -2 19 1 4 3 -2 6 -13 5 -11 0 -14 -3 -6 -6z"/>
<path d="M74 5335 c-16 -12 -16 -14 -3 -15 9 0 22 7 29 15 16 19 0 19 -26 0z"/>
<path d="M365 4910 c-3 -5 -1 -10 4 -10 6 0 11 5 11 10 0 6 -2 10 -4 10 -3 0
-8 -4 -11 -10z"/>
<path d="M270 4879 c0 -5 5 -7 10 -4 6 3 10 8 10 11 0 2 -4 4 -10 4 -5 0 -10
-5 -10 -11z"/>
<path d="M460 4625 c-7 -9 -11 -18 -8 -20 3 -3 11 1 18 10 7 9 11 18 8 20 -3
3 -11 -1 -18 -10z"/>
<path d="M415 4579 c-11 -16 -1 -19 13 -3 7 8 8 14 3 14 -5 0 -13 -5 -16 -11z"/>
<path d="M3276 4403 c-6 -14 -5 -15 5 -6 7 7 10 15 7 18 -3 3 -9 -2 -12 -12z"/>
<path d="M1365 4281 c-3 -5 -1 -12 5 -16 5 -3 10 1 10 9 0 18 -6 21 -15 7z"/>
<path d="M615 4220 c-3 -5 -1 -10 4 -10 6 0 11 5 11 10 0 6 -2 10 -4 10 -3 0
-8 -4 -11 -10z"/>
<path d="M1300 4197 c0 -10 -4 -16 -9 -13 -5 3 -18 -9 -28 -27 -22 -37 -35
-80 -22 -71 5 3 9 11 9 19 0 7 7 15 15 19 8 3 15 13 15 23 0 15 2 16 10 3 7
-12 10 -11 16 5 4 11 8 22 10 25 1 3 -1 12 -7 20 -7 12 -9 12 -9 -3z"/>
<path d="M1330 4190 c0 -5 5 -10 10 -10 6 0 10 5 10 10 0 6 -4 10 -10 10 -5 0
-10 -4 -10 -10z"/>
<path d="M990 4139 c0 -5 5 -7 10 -4 6 3 10 8 10 11 0 2 -4 4 -10 4 -5 0 -10
-5 -10 -11z"/>
<path d="M885 4110 c-3 -5 -1 -10 4 -10 6 0 11 5 11 10 0 6 -2 10 -4 10 -3 0
-8 -4 -11 -10z"/>
<path d="M710 4094 c0 -8 5 -12 10 -9 6 4 8 11 5 16 -9 14 -15 11 -15 -7z"/>
<path d="M685 4090 c-3 -5 -1 -10 4 -10 6 0 11 5 11 10 0 6 -2 10 -4 10 -3 0
-8 -4 -11 -10z"/>
<path d="M884 4059 c-3 -6 0 -15 7 -20 13 -7 28 5 29 24 0 11 -28 8 -36 -4z"/>
<path d="M810 4030 c0 -5 5 -10 10 -10 6 0 10 5 10 10 0 6 -4 10 -10 10 -5 0
-10 -4 -10 -10z"/>
<path d="M1140 3995 c0 -8 5 -15 10 -15 6 0 10 7 10 15 0 8 -4 15 -10 15 -5 0
-10 -7 -10 -15z"/>
<path d="M806 3955 c-3 -8 -1 -15 4 -15 6 0 10 7 10 15 0 8 -2 15 -4 15 -2 0
-6 -7 -10 -15z"/>
<path d="M3051 3914 c0 -11 3 -14 6 -6 3 7 2 16 -1 19 -3 4 -6 -2 -5 -13z"/>
<path d="M1110 3869 c0 -5 5 -7 10 -4 6 3 10 8 10 11 0 2 -4 4 -10 4 -5 0 -10
-5 -10 -11z"/>
<path d="M1095 3680 c-3 -5 -1 -10 4 -10 6 0 11 5 11 10 0 6 -2 10 -4 10 -3 0
-8 -4 -11 -10z"/>
<path d="M1070 3609 c0 -5 5 -7 10 -4 6 3 10 8 10 11 0 2 -4 4 -10 4 -5 0 -10
-5 -10 -11z"/>
<path d="M1120 3590 c0 -5 5 -10 11 -10 5 0 7 5 4 10 -3 6 -8 10 -11 10 -2 0
-4 -4 -4 -10z"/>
<path d="M1015 3510 c3 -5 10 -10 16 -10 5 0 9 5 9 10 0 6 -7 10 -16 10 -8 0
-12 -4 -9 -10z"/>
<path d="M1235 3450 c-3 -5 -1 -10 4 -10 6 0 11 5 11 10 0 6 -2 10 -4 10 -3 0
-8 -4 -11 -10z"/>
<path d="M1215 3370 c-3 -5 -1 -10 4 -10 6 0 11 5 11 10 0 6 -2 10 -4 10 -3 0
-8 -4 -11 -10z"/>
<path d="M1246 3323 c-6 -14 -5 -15 5 -6 7 7 10 15 7 18 -3 3 -9 -2 -12 -12z"/>
<path d="M2137 3164 c-4 -4 -7 -14 -7 -23 0 -11 3 -12 11 -4 6 6 10 16 7 23
-2 6 -7 8 -11 4z"/>
<path d="M1974 2902 c-12 -8 -38 -52 -30 -52 3 0 14 14 26 30 22 31 23 35 4
22z"/>
<path d="M1830 2849 c0 -5 5 -7 10 -4 6 3 10 8 10 11 0 2 -4 4 -10 4 -5 0 -10
-5 -10 -11z"/>
<path d="M2424 2737 c3 -10 6 -24 6 -30 0 -8 4 -7 12 1 10 10 8 16 -6 30 -18
16 -19 16 -12 -1z"/>
<path d="M2367 2645 c-4 -8 -2 -17 2 -20 5 -2 11 4 14 15 6 23 -8 27 -16 5z"/>
<path d="M2520 2576 c0 -7 -14 -39 -30 -70 -17 -31 -26 -56 -20 -56 8 0 70
119 70 135 0 3 -4 5 -10 5 -5 0 -10 -6 -10 -14z"/>
<path d="M2018 2498 c-38 -52 -71 -109 -65 -114 7 -7 51 37 53 53 1 8 12 30
24 49 27 47 20 54 -12 12z"/>
<path d="M2275 2489 c-9 -14 -2 -20 14 -10 8 6 9 11 3 15 -6 3 -14 1 -17 -5z"/>
<path d="M2422 2388 c-14 -14 -16 -28 -3 -28 9 0 24 30 18 36 -2 2 -9 -2 -15
-8z"/>
<path d="M2530 2300 c-12 -8 -10 -10 8 -10 13 0 20 4 17 10 -7 12 -6 12 -25 0z"/>
<path d="M2538 2183 c-10 -2 -18 -12 -18 -21 0 -13 2 -14 9 -4 4 8 12 13 17
12 5 -1 10 3 12 9 2 6 2 10 0 10 -1 -1 -11 -3 -20 -6z"/>
<path d="M2583 2177 c4 -10 2 -29 -4 -44 -8 -23 -7 -30 8 -41 16 -11 20 -10
36 9 19 23 23 49 7 49 -5 0 -20 10 -32 22 -16 16 -20 17 -15 5z m27 -52 c0 -8
-7 -15 -15 -15 -13 0 -14 3 -3 15 16 18 18 18 18 0z"/>
<path d="M2685 2140 c-3 -5 -1 -10 4 -10 6 0 11 5 11 10 0 6 -2 10 -4 10 -3 0
-8 -4 -11 -10z"/>
<path d="M3650 2100 c0 -5 5 -10 10 -10 6 0 10 5 10 10 0 6 -4 10 -10 10 -5 0
-10 -4 -10 -10z"/>
<path d="M2625 2071 c-8 -17 -12 -31 -7 -31 10 0 35 50 28 57 -2 3 -12 -9 -21
-26z"/>
<path d="M2724 2089 c-3 -6 -2 -15 3 -20 5 -5 9 -1 10 11 2 22 -2 25 -13 9z"/>
<path d="M2580 2064 c0 -8 5 -12 10 -9 6 3 10 10 10 16 0 5 -4 9 -10 9 -5 0
-10 -7 -10 -16z"/>
<path d="M2652 2050 c-12 -16 -22 -34 -22 -40 0 -18 22 -11 27 10 3 11 9 20
13 20 11 0 21 28 11 34 -4 3 -18 -8 -29 -24z"/>
<path d="M2539 2023 c-13 -16 -12 -17 4 -4 9 7 17 15 17 17 0 8 -8 3 -21 -13z"/>
<path d="M2810 1985 c-7 -13 -18 -22 -23 -18 -6 3 -7 1 -3 -6 18 -29 -23 -70
-63 -62 -12 2 -13 0 -2 -12 12 -15 54 -20 45 -6 -7 12 24 31 38 23 7 -4 10 -4
6 0 -3 4 2 16 13 27 19 19 26 64 11 73 -5 3 -15 -6 -22 -19z"/>
<path d="M2860 1996 c0 -8 6 -18 13 -22 6 -4 9 -4 5 1 -4 4 -3 14 3 22 9 10 8
13 -5 13 -9 0 -16 -6 -16 -14z"/>
<path d="M3081 1976 c-14 -15 -19 -26 -12 -31 10 -6 15 1 12 18 0 4 3 7 8 7 5
0 11 7 15 15 8 21 3 19 -23 -9z"/>
<path d="M2950 1879 c7 -11 14 -19 16 -16 7 7 -7 37 -17 37 -6 0 -5 -9 1 -21z"/>
<path d="M3110 1889 c0 -5 5 -7 10 -4 6 3 10 8 10 11 0 2 -4 4 -10 4 -5 0 -10
-5 -10 -11z"/>
<path d="M2493 1878 c-18 -24 -24 -38 -16 -38 10 0 36 40 30 46 -2 3 -9 -1
-14 -8z"/>
<path d="M3070 1860 c0 -5 4 -10 9 -10 6 0 13 5 16 10 3 6 -1 10 -9 10 -9 0
-16 -4 -16 -10z"/>
<path d="M2930 1844 c0 -8 5 -12 10 -9 6 3 10 10 10 16 0 5 -4 9 -10 9 -5 0
-10 -7 -10 -16z"/>
<path d="M2727 1815 c-13 -27 -14 -35 -4 -35 8 0 18 16 24 35 6 19 8 35 4 35
-4 0 -15 -16 -24 -35z"/>
<path d="M6020 1798 c0 -7 -7 -58 -15 -113 -20 -140 -20 -145 9 -145 23 0 25
4 32 70 4 39 9 69 11 67 2 -3 12 -33 21 -68 14 -50 21 -64 36 -64 16 0 24 15
41 70 l22 70 7 -72 c8 -68 10 -73 32 -73 28 0 29 9 14 127 -19 143 -19 143
-44 143 -20 0 -26 -10 -46 -87 l-24 -88 -12 45 c-7 25 -18 64 -24 88 -9 35
-15 42 -35 42 -14 0 -25 -6 -25 -12z"/>
<path d="M6311 1784 c-17 -22 -21 -41 -21 -110 0 -72 3 -86 23 -109 23 -27 78
-36 125 -21 63 20 72 224 12 256 -10 6 -41 10 -69 10 -42 0 -53 -4 -70 -26z
m109 -23 c5 -11 10 -50 10 -86 0 -36 -5 -75 -10 -86 -13 -23 -43 -25 -61 -3
-17 21 -18 156 0 178 18 22 48 20 61 -3z"/>
<path d="M6550 1675 l0 -135 25 0 c24 0 25 3 26 58 l1 57 25 -57 c23 -51 30
-58 55 -58 15 0 28 2 28 5 0 3 -14 32 -30 65 -17 33 -26 60 -21 60 31 0 55 74
33 106 -14 21 -51 34 -96 34 l-46 0 0 -135z m94 79 c9 -24 8 -31 -10 -48 -25
-25 -34 -19 -34 24 0 33 4 40 19 40 10 0 22 -7 25 -16z"/>
<path d="M6758 1803 c-2 -5 -3 -64 -3 -133 l1 -125 67 -3 c55 -2 67 0 67 13 0
15 -5 17 -52 17 -26 1 -28 3 -28 44 0 44 0 44 35 44 28 0 35 4 35 20 0 11 -3
19 -7 19 -5 -1 -20 -1 -35 0 -25 1 -28 5 -28 36 0 34 1 35 40 35 33 0 40 3 40
20 0 18 -7 20 -64 20 -36 0 -66 -3 -68 -7z"/>
<path d="M7040 1675 l0 -135 70 0 c56 0 70 3 70 15 0 15 -15 19 -57 15 -23 -1
-23 0 -23 119 l0 121 -30 0 -30 0 0 -135z"/>
<path d="M7229 1791 c-19 -15 -24 -30 -27 -84 -8 -132 16 -170 106 -169 38 1
51 6 70 28 22 25 24 35 20 115 -4 111 -17 129 -93 129 -37 0 -60 -6 -76 -19z
m99 -23 c7 -7 12 -43 12 -93 0 -83 -9 -105 -42 -105 -27 0 -38 32 -38 112 0
75 9 98 40 98 9 0 21 -5 28 -12z"/>
<path d="M7430 1804 c0 -3 11 -44 24 -92 14 -48 29 -106 36 -129 9 -35 15 -43
34 -43 23 0 29 16 94 253 3 13 -2 17 -21 17 -28 0 -30 -4 -60 -130 l-14 -55
-17 80 c-9 44 -19 86 -21 93 -4 11 -55 18 -55 6z"/>
<path d="M7660 1675 l0 -135 64 0 c48 0 65 4 70 15 5 15 3 16 -49 19 -28 1
-30 4 -31 44 l-1 42 39 0 c32 0 39 3 36 18 -2 11 -15 19 -38 22 -31 4 -35 8
-37 38 -2 31 0 32 38 32 32 0 39 3 39 20 0 18 -7 20 -65 20 l-65 0 0 -135z"/>
<path d="M2490 1775 c0 -8 2 -15 4 -15 2 0 6 7 10 15 3 8 1 15 -4 15 -6 0 -10
-7 -10 -15z"/>
<path d="M3000 1760 c0 -5 5 -10 10 -10 6 0 10 5 10 10 0 6 -4 10 -10 10 -5 0
-10 -4 -10 -10z"/>
<path d="M3507 1740 c-10 -12 -15 -26 -11 -32 4 -7 14 -2 25 13 31 40 19 57
-14 19z"/>
<path d="M3185 1710 c-3 -5 -2 -10 4 -10 5 0 13 5 16 10 3 6 2 10 -4 10 -5 0
-13 -4 -16 -10z"/>
<path d="M2415 1690 c3 -5 8 -10 11 -10 2 0 4 5 4 10 0 6 -5 10 -11 10 -5 0
-7 -4 -4 -10z"/>
<path d="M3463 1683 c-3 -10 -15 -30 -25 -45 -25 -37 -9 -35 19 2 29 36 38 60
24 60 -7 0 -14 -8 -18 -17z"/>
<path d="M3040 1661 c0 -5 3 -17 6 -25 6 -15 8 -15 19 1 7 10 11 21 9 25 -7
11 -34 10 -34 -1z"/>
<path d="M3207 1633 c-12 -11 -8 -23 8 -23 8 0 15 7 15 15 0 16 -12 20 -23 8z"/>
<path d="M3490 1529 c0 -5 5 -7 10 -4 6 3 10 8 10 11 0 2 -4 4 -10 4 -5 0 -10
-5 -10 -11z"/>
<path d="M3696 1505 c-3 -8 -1 -15 4 -15 6 0 10 7 10 15 0 8 -2 15 -4 15 -2 0
-6 -7 -10 -15z"/>
<path d="M4668 1460 c-21 -21 -38 -42 -38 -48 0 -6 -10 -27 -21 -47 -32 -54
-17 -52 18 2 17 27 43 65 59 86 36 49 28 53 -18 7z"/>
<path d="M3655 1439 c-9 -17 -14 -33 -11 -37 8 -7 36 31 30 40 -3 5 0 8 5 8 6
0 11 5 11 10 0 21 -20 9 -35 -21z"/>
<path d="M3710 1455 c-14 -16 -10 -18 14 -9 9 3 16 10 16 15 0 14 -16 11 -30
-6z"/>
<path d="M4010 1330 c0 -5 5 -10 10 -10 6 0 10 5 10 10 0 6 -4 10 -10 10 -5 0
-10 -4 -10 -10z"/>
<path d="M4539 1298 c-22 -46 -44 -66 -33 -30 5 14 3 14 -11 -3 -28 -34 -68
-106 -62 -111 3 -4 23 8 45 26 41 32 97 129 89 152 -2 7 -15 -8 -28 -34z"/>
<path d="M3660 1319 c0 -5 5 -7 10 -4 6 3 10 8 10 11 0 2 -4 4 -10 4 -5 0 -10
-5 -10 -11z"/>
<path d="M4080 1320 c0 -5 5 -10 10 -10 6 0 10 5 10 10 0 6 -4 10 -10 10 -5 0
-10 -4 -10 -10z"/>
<path d="M6090 1165 l0 -135 65 0 c58 0 65 2 65 20 0 17 -7 20 -40 20 l-40 0
0 115 0 115 -25 0 -25 0 0 -135z"/>
<path d="M6270 1165 l0 -135 71 0 c62 0 70 2 67 18 -2 12 -14 18 -41 20 -36 3
-37 4 -37 43 0 38 1 39 36 39 28 0 35 3 32 18 -2 11 -14 18 -36 20 -29 3 -32
6 -32 37 0 32 2 34 38 37 25 2 37 8 37 18 0 12 -15 16 -67 18 l-68 3 0 -136z"/>
<path d="M6461 1281 c-34 -34 -27 -66 31 -127 43 -46 50 -58 41 -72 -7 -12
-22 -16 -47 -15 -29 2 -36 -1 -36 -17 0 -22 29 -29 80 -18 76 16 80 70 10 144
-27 29 -50 57 -50 63 0 17 40 33 67 26 20 -5 24 -2 21 12 -5 28 -90 31 -117 4z"/>
<path d="M6641 1274 c-12 -15 -21 -31 -21 -36 0 -21 31 -65 64 -91 56 -44 41
-96 -24 -82 -26 6 -30 4 -30 -14 0 -18 6 -21 48 -21 103 0 125 66 47 144 -25
26 -45 55 -45 65 0 22 30 35 60 26 16 -5 20 -2 20 14 0 18 -6 21 -49 21 -42 0
-53 -4 -70 -26z"/>
<path d="M6929 1293 c-3 -30 -4 -241 -1 -250 2 -7 15 -13 28 -13 23 0 24 3 24
65 l0 65 35 0 35 0 0 -65 c0 -63 1 -65 25 -65 l25 0 0 135 0 135 -25 0 c-23 0
-25 -3 -25 -50 l0 -50 -35 0 -35 0 0 50 c0 47 -2 50 -25 50 -14 0 -25 -3 -26
-7z"/>
<path d="M7227 1293 c-3 -4 -19 -60 -37 -123 -18 -63 -35 -121 -38 -128 -3
-10 3 -13 24 -10 21 2 30 9 32 26 3 18 10 22 42 22 32 0 39 -4 42 -22 2 -17
11 -24 31 -26 32 -4 33 -16 -17 153 -27 91 -36 111 -53 113 -12 2 -23 0 -26
-5z m33 -102 c0 -5 3 -23 6 -40 6 -27 4 -31 -15 -31 -23 0 -24 3 -15 49 6 28
24 45 24 22z"/>
<path d="M7355 1290 c-10 -16 4 -30 31 -30 l24 0 0 -115 0 -115 25 0 25 0 0
114 0 115 27 3 c17 2 29 10 31 21 3 15 -6 17 -77 17 -44 0 -83 -4 -86 -10z"/>
<path d="M7560 1165 l0 -135 65 0 c58 0 65 2 65 20 0 17 -7 20 -40 20 l-40 0
0 40 0 40 41 0 c33 0 40 3 37 18 -2 12 -14 18 -41 20 -35 3 -37 5 -37 38 0 33
1 34 40 34 33 0 40 3 40 20 0 18 -7 20 -65 20 l-65 0 0 -135z"/>
<path d="M3735 1260 c-3 -5 -1 -10 4 -10 6 0 11 5 11 10 0 6 -2 10 -4 10 -3 0
-8 -4 -11 -10z"/>
<path d="M4015 1260 c-3 -5 -1 -10 4 -10 6 0 11 5 11 10 0 6 -2 10 -4 10 -3 0
-8 -4 -11 -10z"/>
<path d="M3698 1243 c7 -3 16 -2 19 1 4 3 -2 6 -13 5 -11 0 -14 -3 -6 -6z"/>
<path d="M3675 1200 c-3 -5 -1 -10 4 -10 6 0 11 5 11 10 0 6 -2 10 -4 10 -3 0
-8 -4 -11 -10z"/>
<path d="M3866 1193 c-6 -14 -5 -15 5 -6 7 7 10 15 7 18 -3 3 -9 -2 -12 -12z"/>
<path d="M4032 1194 c4 -3 -5 -22 -19 -41 -36 -47 -23 -51 15 -4 27 34 29 40
15 46 -10 3 -14 3 -11 -1z"/>
</g>
</svg>
